<?xml version="1.0" encoding="UTF-8"?>
<svg id="Layer_1" data-name="Layer 1" xmlns="http://www.w3.org/2000/svg" viewBox="0 0 233.705 230.357">
  <path d="M9.852,159.1C3.39,144.01-.139,127.615,.004,111.181c-.019-14.442,2.895-28.895,8.554-42.186C13.33,57.584,33.979,13.137,88.278,2.907c-12.866,8.103-23.741,19.178-32.184,31.786-8.238,12.284-14.392,26.1-17.055,40.692-1.498,8.508-1.745,17.317-.05,25.822,1.587,8.003,5.018,15.681,10.16,22.035,3.239,3.887,7.184,7.319,11.882,9.303,5.497,2.39,11.874,2.605,17.568,.772,6.736-2.131,12.426-6.848,16.484-12.554,3.312-4.779,5.586-10.28,6.481-16.024,1.517-7.794,.274-15.901-2.393-23.301-2.818-7.659-7.532-14.422-12.4-20.904-4.103-5.435-9.415-9.74-14.136-14.592,3.953-4.362,7.948-8.689,12.002-12.959,5.235,3.212,8.558,8.493,12.654,12.901-.011-3.853,.035-7.775-.981-11.527-1.035-3.482-3.038-6.593-5.377-9.334,7.91-8.365,15.904-16.653,23.876-24.957-.046,65.479-.039,130.958-.073,196.437-.035,11.264,.062,22.529-.062,33.79-4.756-.301-9.543-.32-14.252-1.12-13.666-1.787-26.98-6.161-39.086-12.747-23.015-12.55-41.221-33.276-51.485-57.326Z" style="fill: #060807;"/>
  <path d="M206.679,39.346c-5.401-6.543-11.654-12.369-18.437-17.46C168.585,7.247,143.975-.103,119.574,.001c-.012,15.09-.046,30.184-.023,45.278,3.401-.031,6.833,0,10.187,.614,.046,1.822-.208,3.633-.564,5.416-1.27,9.975-3.2,19.854-4.443,29.833,2.621,.367,5.204,1.023,7.67,1.984,5.794,2.258,10.678,6.312,14.7,10.983,9.431-7.126,18.711-14.449,28.045-21.691,2.324,2.293,3.841,5.235,5.497,8.014,1.559,2.942,3.374,5.814,4.281,9.045-11.033,4.273-22.012,8.686-33.017,13.029,.32,1.131,.618,2.274,.992,3.393,1.915,6.289,2.027,13.222-.239,19.433-.332,1.054-.741,2.119-.683,3.247,10.817,4.683,21.942,8.628,32.736,13.365-2.787,5.867-5.547,11.867-9.743,16.889-.957-.622-1.895-1.266-2.787-1.965-5.74-4.698-11.604-9.238-17.344-13.932-2.737-2.019-5.304-4.262-8.168-6.099-1.699,2.826-4.385,4.856-7.03,6.744-2.969,1.834-5.987,3.733-9.4,4.613-1.973,.486-3.907,1.116-5.879,1.587,1.251,9.072,2.621,18.128,3.802,27.208,.436,2.656,.753,5.335,.884,8.026-3.154,.255-6.316,.397-9.481,.351-.058,14.986,.05,29.979-.135,44.965,1.853,.046,3.721,.085,5.551-.27,11.365-1.135,22.575-3.714,33.299-7.647,21.745-7.84,41.472-21.83,55.029-40.665,12.646-17.279,19.472-38.507,20.336-59.828,.259-8.5-.347-17.008-1.714-25.397-3.285-20.792-11.678-40.981-25.254-57.175Zm-22.081,16.908c-4.679-4.188-9.466-8.276-14.681-11.786-8.331-5.744-17.46-10.307-26.903-13.909,.614-2.714,1.587-5.347,1.992-8.107-3.706-1.478-7.74-1.702-11.623-2.436-2.486-.336-5.007-.371-7.462-.911,.143-2.876,.108-5.779,.703-8.609,10.631-.456,21.239,1.791,31.172,5.493,8.365,3.065,16.26,7.327,23.622,12.33,5.478,3.961,10.786,8.219,15.302,13.276,5.192,5.393,9.477,11.7,12.33,18.638-2.594,1.343-4.841,3.278-7.512,4.474-2.123-3.837-4.907-7.249-7.605-10.685-.942-1.166-1.919-2.308-3.019-3.328-2.266,1.672-4.061,3.876-6.316,5.559Zm3.111,140.03c-9.941,8.199-21.49,14.345-33.674,18.487-10.087,3.389-20.63,5.47-31.276,5.775-.239-2.938-.154-5.891-.34-8.832,5.941,.035,11.786-1.197,17.638-2.058-.61-2.764-1.162-5.54-1.803-8.296,16.356-2.891,31.446-11.446,43.089-23.193,2.119,1.857,3.941,4.019,6.111,5.825,4.173-4.926,8.234-9.944,12.264-14.986,2.432,1.59,4.937,3.084,7.215,4.899-4.88,8.612-11.6,16.105-19.225,22.378Zm35.171-58.176c-1.787,9.628-5.119,19.101-10.67,27.231-2.571-1.428-5.146-2.841-7.752-4.2,2.173-5.509,5.536-10.546,6.933-16.348-2.637-.811-5.219-1.776-7.86-2.567,1.417-4.351,2.409-8.84,2.946-13.384,1.556-11.832,.961-23.942-1.656-35.581,2.675-.757,5.378-1.425,8.08-2.104-1.502-6.362-4.154-12.368-6.794-18.321,2.598-1.343,5.269-2.54,7.879-3.872,5.509,12.071,8.616,25.146,9.991,38.314,.919,10.265,.792,20.68-1.096,30.832Z" style="fill: #060807;"/>
</svg>