<?xml version="1.0" encoding="UTF-8"?>
<svg id="Layer_1" data-name="Layer 1" xmlns="http://www.w3.org/2000/svg" viewBox="0 0 230.356 230.335">
  <path d="M76.539,6.466C86.93,2.758,97.865,.591,108.881,.001c.004,2.504,.004,5.006,0,7.509-12.112,.701-24.102,3.462-35.288,8.165-9.97,4.182-19.301,9.882-27.585,16.829-8.035,6.731-15.087,14.633-20.864,23.378-6.177,9.348-10.894,19.663-13.886,30.463-2.07,7.425-3.306,15.076-3.752,22.77-2.502-.008-5.004-.001-7.507-.004,.649-12.615,3.375-25.122,8.09-36.842,4.018-10.025,9.449-19.486,16.101-27.995,6.666-8.528,14.522-16.127,23.277-22.495,8.889-6.464,18.717-11.629,29.071-15.315Zm44.935,1.042c9.428,.553,18.785,2.334,27.745,5.327,10.456,3.486,20.365,8.6,29.276,15.089,14.456,10.502,26.259,24.629,33.975,40.748,6.072,12.624,9.615,26.453,10.381,40.44,2.501,0,5.003,.001,7.505,0-.776-15.823-4.922-31.46-12.029-45.615-7.657-15.326-18.83-28.855-32.335-39.384-8.711-6.802-18.421-12.318-28.709-16.354-11.414-4.493-23.559-7.105-35.807-7.759-.003,2.502,.003,5.006-.003,7.508Zm-49.313,29.877c11.649-6.425,24.745-10.2,38.027-10.969-.221-3.737-.425-7.474-.648-11.21-14.951,.847-29.706,5.098-42.811,12.347,1.822,3.27,3.619,6.556,5.432,9.832Zm76.994-4.339c12.281,5.1,23.415,12.964,32.286,22.873,2.79-2.506,5.589-5.003,8.378-7.512-10.005-11.142-22.526-20.003-36.355-25.748-1.441,3.461-2.871,6.926-4.309,10.387Zm-40.284,46.979c-5.041,.895-9.877,2.904-14.075,5.835-9.184-9.182-18.364-18.366-27.549-27.547-2.973,2.972-5.947,5.945-8.919,8.919,9.181,9.184,18.366,18.366,27.548,27.549-2.932,4.199-4.946,9.038-5.836,14.081-12.981,.006-25.961,.003-38.942,.001,.001,4.204,.001,8.408,0,12.612,12.979-.004,25.958-.001,38.939-.001,.897,5.042,2.902,9.884,5.839,14.081-9.173,9.189-18.362,18.363-27.54,27.547,2.972,2.973,5.947,5.945,8.919,8.92,9.178-9.185,18.36-18.366,27.544-27.545,4.194,2.934,9.033,4.94,14.073,5.837-.008,12.983,.004,25.966-.007,38.95,4.205,.015,8.41,.007,12.615,.005-.006-12.984,.001-25.969-.003-38.954,5.045-.895,9.891-2.9,14.089-5.839,9.191,9.175,18.367,18.366,27.552,27.547,2.973-2.975,5.947-5.949,8.921-8.921-9.184-9.179-18.364-18.363-27.547-27.545,2.928-4.201,4.941-9.039,5.835-14.083,12.983,0,25.965-.004,38.948,.001,0-4.201-.001-8.402,0-12.605-12.983-.014-25.966-.001-38.95-.006-.892-5.044-2.901-9.883-5.835-14.081,9.182-9.188,18.369-18.371,27.555-27.555-2.977-2.969-5.948-5.944-8.92-8.919-9.185,9.185-18.367,18.37-27.554,27.554-4.201-2.94-9.048-4.946-14.096-5.844,.003-12.983,0-25.968,.001-38.951-4.202,.001-8.406,0-12.609,.001,.002,12.985-.001,25.969,.002,38.955ZM16.466,98.397c3.695,.625,7.386,1.269,11.082,1.885,2.241-13.108,7.471-25.695,15.16-36.542-3.062-2.165-6.118-4.336-9.179-6.5-8.65,12.224-14.538,26.394-17.063,41.157Zm184.196,9.658c.466,7.439,.044,14.932-1.203,22.28,4.05,.691,8.098,1.388,12.147,2.08,2.8-16.245,1.821-33.109-2.769-48.938-3.95,1.131-7.896,2.279-11.845,3.41,1.985,6.895,3.233,14.004,3.67,21.167ZM13.705,170.036c6.972,12.925,16.486,24.451,27.764,33.848,9.186,7.664,19.586,13.863,30.685,18.322,11.682,4.718,24.15,7.461,36.729,8.128,0-2.504,.003-5.006-.001-7.508-11.068-.645-22.038-2.999-32.383-6.996-11.426-4.403-22.084-10.784-31.379-18.754-12.475-10.669-22.488-24.207-28.988-39.283-4.936-11.407-7.857-23.683-8.585-36.091-2.505-.001-5.01,.001-7.515-.001,.904,16.861,5.627,33.492,13.673,48.334Zm205.669-27.024c-2.897,10.846-7.523,21.223-13.629,30.641-5.809,8.965-12.952,17.063-21.118,23.952-8.436,7.12-17.967,12.948-28.163,17.184-11.098,4.626-22.985,7.343-34.988,8.036-.001,2.502,0,5.006,0,7.509,10.586-.567,21.096-2.587,31.122-6.037,10.618-3.644,20.703-8.839,29.817-15.395,8.737-6.283,16.586-13.793,23.272-22.224,6.768-8.531,12.296-18.039,16.392-28.129,4.774-11.712,7.558-24.221,8.259-36.848-2.504-.001-5.007,0-7.509,0-.445,7.194-1.587,14.347-3.455,21.31ZM25.329,159.372c3.985,8.131,9.091,15.716,15.144,22.451,.395-.149,.656-.535,.989-.787,2.478-2.215,4.951-4.432,7.43-6.645-2.337-2.624-4.532-5.375-6.546-8.253-5.626-8.006-9.86-16.974-12.561-26.376-3.602,1.037-7.202,2.076-10.803,3.111,1.641,5.666,3.751,11.2,6.349,16.499Zm132.812,33.613c1.814,3.279,3.618,6.565,5.428,9.847,13.12-7.236,24.564-17.477,33.235-29.694-3.059-2.165-6.112-4.339-9.171-6.503-7.695,10.841-17.848,19.931-29.491,26.349Zm-81.306,14.66c13.83,5.776,28.971,8.356,43.933,7.501-.22-3.744-.421-7.489-.642-11.232-13.276,.783-26.712-1.528-38.981-6.651-1.433,3.462-2.872,6.922-4.31,10.383Z"/>
</svg>