<?xml version="1.0" encoding="UTF-8"?>
<svg id="Layer_1" data-name="Layer 1" xmlns="http://www.w3.org/2000/svg" viewBox="0 0 232.622 232.622">
  <path d="M186.496,164.405c38.564-49.111,6.899-93.756,6.899-93.756,18.264,34.495-16.65,68.593-16.65,68.593,42.212-68.991-24.346-109.169-24.346-109.169,38.962,29.21-4.069,76.708-4.069,76.708,34.495,63.728-27.596,92.54-27.596,92.54,0,0-.177-6.811-.885-34.473,1.725,1.813,13.865,14.572,13.865,14.572l-9.729-19.083,25.164-3.648-25.164-3.648,8.115-22.311s-10.659,15.545-12.648,18.464c-.906-35.336-3.14-122.989-3.162-123.409v0c-.022,.686-2.256,88.162-3.162,123.409-1.99-2.919-12.648-18.464-12.648-18.464l8.115,22.311-25.142,3.648,25.163,3.648-9.729,19.083s12.162-12.781,13.865-14.572c-.708,27.663-.885,34.473-.885,34.473,0,0-62.113-28.835-27.618-92.562,0,0-43.031-47.475-4.069-76.708,0,0-66.559,40.178-24.346,109.169,0,0-34.894-34.098-16.628-68.593,0,0-31.665,44.645,6.899,93.756,0,0-10.547-6.501-19.879-31.245,0,0,6.811,73.7,89.267,74.673h1.636c82.457-.973,89.267-74.673,89.267-74.673-9.331,24.766-19.9,31.266-19.9,31.266ZM116.311,0C52.075,0,0,52.075,0,116.311s52.075,116.311,116.311,116.311,116.311-52.075,116.311-116.311C232.6,52.074,180.525,0,116.311,0Zm0,218.669c-56.541,0-102.358-45.839-102.358-102.358-.022-56.541,45.817-102.381,102.358-102.381s102.358,45.839,102.358,102.358-45.839,102.381-102.358,102.381Z"/>
</svg>