<?xml version="1.0" encoding="UTF-8"?>
<svg id="Layer_1" data-name="Layer 1" xmlns="http://www.w3.org/2000/svg" viewBox="0 0 232.843 232.844">
  <path d="M116.421,0C52.119,0,0,52.119,0,116.422s52.119,116.422,116.421,116.422,116.421-52.119,116.421-116.422S180.724,0,116.421,0Zm0,218.891c-56.586,0-102.469-45.883-102.469-102.469S59.836,13.953,116.421,13.953s102.469,45.883,102.469,102.469c.022,56.585-45.861,102.468-102.469,102.468Zm93.558-108.594c-.332-3.671-.818-7.319-1.504-10.924-1.991-10.901-5.705-21.56-11.52-31.046-3.914-6.435-8.756-12.251-14.174-17.447-5.307-5.086-11.145-9.597-17.093-13.908-.464-.354-1.017-.487-1.592-.575,.066,.133,.177,.398,.243,.531,2.056,2.189,3.892,4.599,5.705,7.01,4.533,6.103,8.447,12.715,11.255,19.791,2.83,7.098,4.467,14.727,4.379,22.4-.045,13.555-5.617,26.867-14.683,36.861-1.814,2.056-4.047,3.715-6.302,5.263-3.406,2.3-7.209,4.113-11.3,4.798-3.737,.641-7.651,.133-11.056-1.526-3.074-1.504-5.816-3.737-7.74-6.59-3.737-5.373-5.462-11.897-5.86-18.376-.442-7.474,.664-14.993,2.941-22.112,1.195-3.538,2.587-7.054,4.754-10.128,3.98-5.749,9.531-10.547,16.076-13.112-3.648-4.091-7.275-8.182-10.924-12.272-6.656,3.693-12.582,8.823-16.872,15.125,.265-5.617,1.835-11.101,4.112-16.231,1.238-2.742,2.632-5.417,4.312-7.917-5.683-6.457-11.388-12.936-17.071-19.392-5.749,6.523-11.498,13.047-17.248,19.569,1.968,2.742,3.648,5.661,4.975,8.756,2.034,4.732,3.383,9.84,3.471,15.015-4.224-6.236-9.884-11.587-16.65-14.948-3.737,4.069-7.43,8.182-11.145,12.273,2.764,1.238,5.462,2.675,7.917,4.467,4.157,3.029,7.85,6.899,9.995,11.632,3.715,7.297,6.169,15.324,6.479,23.549,.31,7.96-1.437,16.076-5.484,22.975-1.018,1.791-2.499,3.273-4.025,4.621-3.118,2.72-7.121,4.511-11.278,4.666-4.312,.221-8.558-1.083-12.361-3.029-2.852-1.46-5.528-3.295-7.917-5.44-6.811-6.766-12.096-15.235-14.395-24.589-2.056-8.159-1.835-16.761-.022-24.921,1.614-7.341,4.422-14.395,7.96-21.029,3.029-5.617,6.545-10.99,10.614-15.899,.42-.553,1.039-.973,1.26-1.637-.332-.022-.664-.022-.929,.199-8.381,5.55-16.031,12.206-22.488,19.901-8.491,10.039-14.904,21.825-18.552,34.451-3.206,11.034-4.401,22.643-3.406,34.097,1.349,16.474,7.076,32.549,16.43,46.149,8.292,12.118,19.437,22.311,32.306,29.387,10.746,5.948,22.71,9.708,34.938,11.012,6.125,.664,12.294,.686,18.442,.243,5.108-.376,10.172-1.128,15.147-2.3,14.704-3.339,28.569-10.415,39.714-20.609,11.764-10.68,20.3-24.655,25.164-39.736,3.317-10.216,5.042-20.919,5.373-31.643,.111-2.454-.176-4.931-.375-7.407Z"/>
</svg>