<?xml version="1.0" encoding="UTF-8"?>
<svg id="Layer_1" data-name="Layer 1" xmlns="http://www.w3.org/2000/svg" viewBox="0 0 245.555 233.32">
  <path d="M57.077,1.94c.912-.662,1.782-1.395,2.771-1.94-2.934,3.245-5.438,6.887-7.307,10.848-2.539,5.313-4.025,11.093-4.662,16.937-.692,6.598-.437,13.315,.892,19.821,.75,5.167,2.76,10.044,4.93,14.759,2.648,5.63,5.731,11.046,9,16.337,2.143,3.439,4.346,6.846,6.694,10.149,1.377,1.678,2.361,3.81,2.184,6.023-.084,1.19-.491,2.351-1.158,3.34-.463,.886-.826,1.822-1.233,2.736-4.907,11.448-8.1,23.669-9.03,36.104-.525,7.058-.344,14.179,.689,21.184,.484,3.225,1.131,6.434,2.052,9.566,3.286,10.361,8.567,20.114,15.619,28.399,7.201,8.469,16.209,15.387,26.234,20.189,2.688,1.279,5.447,2.42,8.287,3.319,.463,.118,.919,.367,1.41,.29,.487-12.112,.978-24.226,1.441-36.339-3.499,3.367-6.939,6.796-10.415,10.186-.458,.432-.873,.914-1.383,1.291,1.299-2.77,2.656-5.52,3.796-8.363,.893-2.213,1.751-4.455,2.26-6.792,.181-.961,.379-1.977,.092-2.934-.134-.502-.676-.674-1.097-.862-1.68-.654-3.444-1.056-5.196-1.462-4.291-.948-8.628-1.667-12.968-2.344-.525-.089-1.059-.134-1.571-.282,5.023-.624,10.043-1.299,15.023-2.215,1.844-.361,3.702-.702,5.483-1.315,1.768-.582,2.933-2.396,3.017-4.215,.101-1.653-.508-3.248-1.272-4.683-1.892-3.913-3.77-7.832-5.658-11.747-.569-1.237-1.227-2.434-1.737-3.694,3.32,3.528,6.609,7.098,10.145,10.417,.831,.764,1.652,1.545,2.559,2.221,1.826-46.062,3.673-92.123,5.49-138.186,.143,1.373,.134,2.757,.211,4.134,1.824,44.77,3.661,89.54,5.474,134.31,2.494-1.932,4.69-4.215,6.909-6.448,1.494-1.527,2.965-3.078,4.42-4.642,.559-.565,1.039-1.212,1.656-1.717-.521,1.277-1.185,2.492-1.761,3.745-1.64,3.402-3.278,6.806-4.917,10.208-.824,1.764-1.915,3.501-1.956,5.51-.122,1.99,1.042,4.102,2.975,4.768,1.548,.545,3.166,.86,4.772,1.189,5.166,.989,10.385,1.677,15.602,2.342-.334,.191-.73,.184-1.095,.255-4.063,.624-8.121,1.299-12.145,2.144-2,.437-4.008,.875-5.94,1.561-.477,.208-1.059,.335-1.371,.784-.417,.909-.214,1.946-.059,2.896,.553,2.695,1.578,5.263,2.623,7.801,1.075,2.611,2.331,5.144,3.533,7.698-4.085-3.934-8.097-7.947-12.17-11.896,.698,12.244,1.386,24.489,2.082,36.733,2.58-.702,5.077-1.687,7.525-2.757,10.228-4.547,19.47-11.294,26.933-19.637,7.04-7.854,12.417-17.146,15.962-27.068,1.107-2.965,1.85-6.052,2.446-9.156,1.342-7.146,1.746-14.453,1.396-21.709-.654-13.437-3.979-26.681-9.296-39.017-.467-1.033-.851-2.11-1.469-3.064-1.142-2.018-1.07-4.573-.042-6.621,.556-1.217,1.479-2.201,2.205-3.31,4.588-6.686,8.868-13.595,12.629-20.782,1.889-3.646,3.644-7.368,5.057-11.226,.933-2.58,1.731-5.227,2.11-7.95,1.279-6.226,1.588-12.643,1.02-18.969-.511-5.527-1.764-11.008-3.942-16.123-1.813-4.273-4.281-8.274-7.345-11.764-.252-.29-.525-.562-.733-.883,1.984,1.24,3.796,2.743,5.606,4.222,8.389,7.047,15.616,15.474,21.319,24.826,4.407,7.238,7.858,15.063,10.166,23.219,2.542,8.946,3.69,18.276,3.523,27.571-.13,7.808-1.17,15.591-2.927,23.197-1.519,6.694-3.827,13.208-6.784,19.401-1.132,2.348-2.378,4.642-3.759,6.854-.798,1.383-1.5,2.859-1.775,4.444-.166,.981-.11,2.088,.539,2.894,.494,.662,1.386,.846,2.168,.835,1.462-.057,2.741-.936,3.734-1.947,.897-.869,1.524-1.959,2.328-2.907,3.258-4.263,5.855-8.997,8.07-13.874,5.702-12.69,8.459-26.589,8.834-40.462,.19-6.341-.183-12.687-.872-18.989,1.408,3.111,2.519,6.352,3.578,9.597,2.416,7.579,4.168,15.374,5.163,23.269,1.619,12.927,1.156,26.25-2.499,38.808-1.64,5.653-3.929,11.121-6.85,16.233-1.192,2.117-2.557,4.13-3.855,6.183-1.673,2.628-3.327,5.271-4.939,7.939-.679,1.168-1.439,2.298-1.981,3.541-.453,1.078-.845,2.253-.681,3.439,.105,.844,.752,1.585,1.571,1.809,.862,.149,1.704-.231,2.437-.65,2.085-1.255,3.69-3.132,5.14-5.054,3.487-4.523,6.738-9.274,9.185-14.449,.637-1.312,1.112-2.692,1.632-4.048-.12,1.145-.477,2.253-.771,3.364-1.611,5.491-4.024,10.717-6.788,15.717-5.317,9.546-12.037,18.253-19.422,26.284-3.845,4.169-7.88,8.165-12.075,11.98-3.95,3.354-8.231,6.295-12.622,9.037-19.66,12.143-42.293,19.492-65.366,20.992-1.839,.032-3.677,.004-5.515,.014-3.358,.062-6.706-.316-10.042-.662-18.514-2.106-36.561-8.052-52.774-17.224-5.992-3.415-11.787-7.221-17.084-11.647-2.259-1.983-4.419-4.075-6.563-6.181-5.73-5.666-11.127-11.682-15.998-18.106-5.337-7.064-10.09-14.621-13.607-22.762-1.24-2.899-2.328-5.869-3.104-8.926-.157-.668-.34-1.333-.413-2.015,1.53,4.537,3.92,8.728,6.571,12.697,1.687,2.526,3.493,4.972,5.399,7.337,.909,1.155,1.982,2.181,3.152,3.07,.805,.579,1.691,1.135,2.698,1.255,1.012,.14,1.966-.693,2.155-1.66,.211-.991-.055-2.005-.381-2.938-.463-1.329-1.24-2.508-1.948-3.712-1.622-2.703-3.295-5.377-4.985-8.038-1.442-2.291-2.971-4.529-4.287-6.897C4.478,137.062,1.346,125.938,.373,114.693c-1.199-13.768,.569-27.68,4.236-40.967,.903-3.25,1.929-6.466,3.088-9.635,.603-1.57,1.151-3.17,1.901-4.678-.26,2.992-.592,5.984-.72,8.989-.728,14.168,.869,28.537,5.43,42.003,2.465,7.217,5.715,14.213,10.07,20.489,.791,1.176,1.728,2.243,2.54,3.404,.834,1.091,1.819,2.12,3.067,2.734,.934,.467,2.065,.624,3.057,.242,.705-.249,1.161-.934,1.346-1.629,.31-1.237-.035-2.521-.456-3.687-.685-1.919-1.912-3.565-2.876-5.341-3.099-5.551-5.494-11.477-7.359-17.547-1.587-5.295-2.692-10.727-3.479-16.194-1.915-13.452-1.267-27.328,2.444-40.425,3.138-11.188,8.444-21.735,15.38-31.046,5.44-7.293,11.815-13.915,19.034-19.465Z"/>
</svg>