<?xml version="1.0" encoding="UTF-8"?>
<svg id="Layer_1" data-name="Layer 1" xmlns="http://www.w3.org/2000/svg" viewBox="0 0 209.694 231.633">
  <path d="M88.32,122.985c-.515,.129-.483,.741-.483,1.096-.097-.064-.258-.129-.419-.226-.58-.58-.161-1.321,.612-.999,.129,.032,.29,.032,.29,.128Zm-25.873,48.75l-1.408-.629c.781,.5,1.562,1,2.342,1.499,0-.032-.032-.032-.064-.064-.193-.193-.645-.676-.87-.805Zm-39.502-18.043c-1.257-.516-1.998,.741-.999,1.675,.226,.161,.483,.258,.709,.419,0-.645-.064-1.676,.773-1.869,0-.161-.29-.161-.483-.225Zm6.154,9.15c.226,.193,3.093,2.384,3.093,1.675,0-.193-.193-.612-.193-.934-.032-1.192,.064-.516-.612-.516-1.515,0-1.192-.258-2.095-.258,0,0-.161,.032-.193,.032Zm61.734-34.573c-.386,0-.805,.032-1.224,.032-.161,.709-.806,.645-.967,.902,.773,.58,1.515,1.096,2.32,1.644,.193,.161,.193,.128,.387-.032l1.611-1.031c.258-.161,.193-.161,.193-.29-.258-.064-1.354-.935-1.837-1.16-.129-.064-.29-.064-.483-.064ZM24.008,168.448c-.161,.226,.677,.966,.838,1.095l3.029-1.901c-.451-.58-3.254-2.417-3.996-2.964-.354-.29-.515-.451,0-.677,.387-.193,.677-.354,.87-.676-.258-.129-.741-.322-1.063-.322-.58,0-.451-.032-.741,.29-.226,.29-.064,.451-.451,.902l-1.965,1.676,1.45,1.127c1.063,.967,2.835,.387,3.577,1.644-.258,.064-1.418-.354-1.547-.193Zm69.596-42.016c-.902-.644-1.74,.902-1.289,1.45,.677,.902,2.126-.419,1.289-1.45Zm-1.901,1.901c.129,.097,1.869,1.418,1.836,.999,0-.129-.097-.387-.097-.58-.032-.709,.032-.322-.386-.322-.902,0-.709-.129-1.225-.129l-.129,.032Zm-30.771,42.725l.106,.047c-.024-.016-.049-.032-.074-.047h-.032Zm27.742-39.406c-.097,.161,.387,.58,.483,.677l1.804-1.128c-.258-.354-1.933-1.482-2.384-1.804-.193-.161-.29-.258,0-.387,.226-.129,.419-.226,.548-.419-.161-.064-.451-.193-.645-.193-.354,0-.29,0-.451,.193-.161,.161-.032,.258-.29,.516l-1.16,1.031,.87,.677c.645,.547,1.708,.225,2.159,.966-.161,.032-.87-.226-.935-.129ZM15.019,177.567c-.161-.193-.193-.064-.258-.322-.483,0-.29,.129-.709,.258-.483,.129-.322-.193-.58-.193-.193,0-.129,0-.258,.097,0,.322,.805,1.16,1.063,1.354,.032-.483,.258-1.096,.741-1.192Zm14.596,14.725c.032,.032,.032,.097,.032,.161s-.032,.128-.032,.161c-.032,.097-.097,.161-.193,.226-.064,.032-.161,.064-.258,.032-.097,0-.161,0-.226-.032-.064-.032-.128-.064-.161-.097-.064-.032-.129-.064-.161-.097-.161-.097-.322-.225-.516-.322-.129-.097-.258-.193-.387-.322,0,.064-.032,.097-.064,.129-.032,.064-.097,.129-.161,.161-.097,0-.161,.032-.258,.032-.064-.032-.161-.064-.258-.097l-.097-.097c-.032-.032-.064-.097-.129-.129-.128-.161-.29-.354-.451-.548s-.29-.387-.419-.58c-.064-.129-.129-.29-.161-.451v-.064c-.032-.064-.064-.258-.097-.29l-8.958-8.828c-.064-.064-.193-.129-.29-.193h-.032c-.129-.064-.226-.129-.322-.193s-.193-.129-.29-.226c0,0-.097,0-.129-.032-.29-.064-.516-.129-.741-.258-.193-.097-.387-.226-.612-.387l-.064-.064c-.129-.161-.29-.322-.419-.483-.161-.161-.29-.322-.451-.483-.129-.161-.226-.29-.354-.451-.097-.129-.193-.258-.29-.419h-.258c-.097-.032-.226-.064-.322-.129-.032-.032-.064-.032-.064-.064l-2.384-2.739,.483-.709c-.032-.064-.032-.097-.064-.161-.129-.225-.226-.418-.097-.676,.097-.161,.226-.258,.354-.354l.032-.032c.097-.064,.161-.161,.258-.226s.193-.129,.258-.226l7.926-6.605-3.189-2.352c-.064-.032-.129-.032-.193-.064l-.161-.097c-.193-.064-.354-.129-.516-.226s-.29-.193-.451-.354c-.064-.064-.161-.097-.226-.161-.064-.032-.129-.064-.226-.097s-.161-.064-.257-.064h-.29c-.548,.064-1.676,.226-2.159,.226-.87-.064-1.515-.258-2.127-.612-.58-.322-1.127-.773-1.675-1.353l-.032-.032c-.193-.161-.354-.322-.548-.483,0,0,0-.032-.032-.032-.193-.258-.354-.516-.387-.773s.064-.548,.354-.773c.226-.225,.58-.354,.87-.483-.097-.064-.193-.129-.226-.161l-.032-.032c-.064-.032-.129-.097-.193-.129-.322-.258-.58-.58-.773-.935-.129-.29-.225-.644-.161-.999,.032-.129,.064-.258,.129-.387s.129-.226,.226-.322c.064-.129,.193-.193,.29-.258,.129-.097,.258-.161,.387-.193,.387-.129,.806-.097,1.192,0,.451,.161,.902,.419,1.256,.741l.032,.032c.419,.419,1.031,.87,1.579,1.256l.322,.193c.226,.161,.451,.322,.677,.516l.032,.032,.097,.097c.193,.129,.29,.129,.516,.129h.934c1.45-.032,2.9-.032,4.35-.064,.161,0,.322,.032,.483,.032l.096,.032c.226,0,.612,.064,.709-.064,.258-.387,1.192-.612,1.644-.709h.032c.354-.097,.773-.193,1.16-.258,.29-.032,.548-.097,.838-.129l-.097-.032c-.258-.097-.483-.225-.709-.322s-.451-.226-.677-.354c-.032,0-.064-.032-.096-.064l-.032-.032c-.193-.226-.387-.483-.548-.773s-.258-.612-.29-.935c0-.161,.032-.322,.064-.483,.064-.128,.129-.29,.226-.418s.226-.226,.322-.29c.129-.097,.29-.161,.418-.226,.29-.097,.58-.129,.87-.097,.322,0,.612,.064,.902,.193,.258,.097,.483,.226,.708,.354s.419,.29,.645,.451l.226,.193c.097,.064,.161,.129,.258,.161h.032c.258,0,.516,.064,.709,.193,.226,.097,.419,.258,.612,.419,.612,.483,1.708,.032,2.384-.258l.387-.161c.58-.226,1.096-.226,1.579-.097s.934,.387,1.417,.645l.064,.032c.129,.097,.258,.161,.387,.226l.032,.032c.064,.032,.129,.064,.161,.097,.064,.032,.129,.064,.193,.064l.064,.032,.032,.032c.032,0,.097-.032,.161-.097,.032,0,.064-.032,.097-.064-.29-.129-.58-.258-.87-.354l-.516-.226c-.547-.226-1.546-.645-1.836-.934-.161-.129-.258-.29-.322-.483-.097-.193-.129-.387-.129-.58,0-.129,.032-.258,.064-.387,0-.129,.032-.258,.097-.354,.032-.129,.097-.258,.161-.354,.097-.097,.161-.193,.258-.29,.129-.129,.29-.258,.451-.322s.322-.097,.516-.097c.87,0,2.223,.677,3.093,1.127l.483,.226c.451,.226,.967,.483,1.45,.645l.193,.097c.064,.032,.129,.064,.193,.097l.451,.032c.097,0,.193,0,.29,.032,.064,0,.161,.064,.258,.097,.032,0,.097-.032,.129-.032l.064-.032c.161-.064,.387-.129,.58-.161,.226-.032,.419-.064,.644-.064,.226,.032,.354-.032,.548-.129l.064-.032c.032-.032,.064-.032,.097-.064,.645-.258,1.289-.516,1.901-.773,.612-.226,1.224-.515,1.901-.773,.419-.161,.837-.354,1.192-.516,.419-.161,.806-.322,1.225-.516l.451-.193c-.193-.064-.387-.161-.548-.258-.226-.161-.419-.354-.548-.612-.032-.097-.097-.226-.129-.354,0-.128-.032-.257,0-.386,0-.129,.032-.258,.097-.387s.129-.226,.226-.322c.258-.226,.58-.354,.902-.419,.451-.064,.902-.032,1.289,.064,1.354,.258,3.383,.999,4.769,1.417l.226,.064c.161,0,.29,.032,.419,.064,.161,.032,.29,.097,.419,.161,.129,.032,.193,.097,.29,.161s.161,.129,.226,.226c.064,.064,.129,.129,.193,.161l.064,.032c.064,0,.064,.032,.161,.032h.032c1.708,.516,3.448,1.096,5.155,1.644h.032c1.869,.612,3.738,1.192,5.639,1.772h.032c.419,.161,1.063,.161,1.579,.129h.129c.29-.032,.612-.032,.902,0h.032c.354,0,.999,.064,.967,.58,0,.128-.064,.225-.161,.29,0,.032-.032,.064-.064,.097,.548,.161,1.095,.354,1.611,.58,.064,.032,.129,.064,.226,.097,.064,.032,.129,.097,.193,.161s.097,.161,.129,.226c0,.097,0,.193-.032,.258-.032,.097-.064,.161-.129,.193-.064,.064-.129,.097-.226,.129-.064,.032-.193,.032-.322,.032-.097,0-.193-.032-.29-.032-.354-.032-.741-.129-1.095-.226l-.548-.129c.032,.097,.064,.193,.064,.258,.032,.161-.032,.322-.161,.419-.354,.258-.934-.161-1.256-.387l-.129-.064-.064-.064c-.58-.387-1.354-.902-1.998-1.063l-10.343-2.642c-.064,0-.128-.032-.193-.032l-.097-.032c-.258-.064-.87-.257-.967-.032-.226,.451-.773,.773-1.192,.999l-.032,.032c-.097,.064-.193,.097-.29,.161-1.16,.741-1.998,1.289-2.835,1.804-1.063,.677-2.513,1.772-3.512,2.223-.064,.032-.097,.064-.161,.097-.032,.032-.097,.064-.129,.097l-.097,.097-.097,.097c-.032,.064-.097,.129-.161,.193-.032,.064-.097,.129-.161,.161l-.193,.193c-.064,.032-.161,.097-.225,.129-.161,.097-.322,.161-.483,.226l-.483,.193h-.032c-.032,.129-.064,.226-.129,.322-.032,.128-.097,.257-.193,.386-.032,.032-.064,.097-.129,.161l-.032,.064,.129,.064c.354,.258,.967,.677,1.321,.709,.451,.064,.902,.097,1.353,.129,.741,.064,1.514,.129,2.255,.322,.999,.226,2.062,.709,3.029,1.16l.258,.096c.097,.032,.193,.064,.258,.129,.097,.032,.193,.064,.258,.097l.29,.193c.097,.064,.161,.129,.258,.226,.064,.097,.128,.193,.161,.29s.064,.193,.064,.322c0,.097-.032,.226-.064,.322-.064,.097-.128,.193-.225,.29h-.032c.161,.097,.29,.161,.418,.29,.129,.129,.258,.322,.387,.548l.097,.064,10.149,4.994c.161,.032,.612,.032,.87,.064h.612c.418,.032,1.224,.032,1.224,.612,0,.193-.064,.322-.161,.419-.064,.032-.097,.064-.161,.097l.29,.129c.483,.226,.999,.451,1.321,.87,.097,.128,.161,.257,.161,.386s-.032,.258-.161,.354c-.226,.193-.548,.097-.806,0-.226-.064-.451-.161-.677-.258l-.483-.226v.29c-.032,.161-.097,.29-.258,.387-.386,.161-.805-.29-1.095-.58l-.193-.193c-.258-.29-.677-.676-.967-.837l-10.214-4.607c1.225,.805,2.481,1.579,3.738,2.384,1.482,.966,2.932,1.869,4.35,2.739,1.74,1.095,3.448,2.191,5.123,3.254l.032,.032c.064,.032,.193,.129,.29,.193,.097-.064,.161-.097,.258-.129,.129-.032,.226-.032,.354-.032,.612,0,1.417,.451,2.191,.999,.773,.516,1.514,1.16,1.933,1.514,.226,.226,.451,.451,.677,.645l.677,.677c.58,.58,1.192,1.224,1.772,1.869,.58,.677,1.127,1.386,1.579,2.062l.226,.354c-.258,.161-.483,.322-.709,.516-.193,.129-.354,.258-.547,.387-.161,.129-.354,.258-.516,.354-1.385,.87-5.606-.838-7.088-1.45l-.097-.032c-1.998-.837-3.996-1.74-5.961-2.674-1.965-.934-3.898-1.901-5.832-2.868-.87-.451-1.74-.87-2.578-1.289l-3.222-1.676c-2.03-1.031-4.028-2.03-6.058-3.028l-.258-.129c-1.417-.709-2.932-1.45-4.382-1.966q-.032,0-.032-.032c-.322-.129-.548-.225-.773-.257-.193-.064-.451-.097-.773-.129l-.322-.032-.387-.032-.097-.032h-.032l-2.513-1.805c.064,.258,.129,.516,.129,.773,.032,.387,0,.741-.064,1.096-.064,.193-.129,.386-.193,.547-.064,.193-.161,.354-.258,.516-.129,.193-.226,.322-.387,.483-.129,.129-.258,.258-.419,.354-.29,.193-.58,.322-.934,.387-.322,.064-.645,.064-.999-.032-.161-.032-.354-.097-.516-.161s-.322-.129-.483-.258c-.129-.064-.29-.193-.419-.29-.128-.129-.225-.226-.354-.354-.226-.064-.677,.032-1.128,.161s-.902,.29-1.256,.419c.064,.064,.097,.161,.097,.258,0,.129-.032,.226-.129,.354-.29,.226-.58,.064-.838-.064l-.064-.064c-.064,0-.129-.032-.161-.064-.097,.032-.193,.097-.258,.161l-.129,.064c-.193,.097-.354,.226-.548,.354l-.547,.322c-.548,.354-1.096,.676-1.611,1.031l-1.579,.999c-1.128,.741-2.288,1.482-3.416,2.191-.354,.226-.676,.451-.999,.645,.032,.064,.097,.097,.129,.129l.129,.097c.193,.193,.386,.386,.58,.547,.064,.097,.129,.161,.193,.258,.064,.064,.129,.161,.193,.258s.097,.193,.161,.29c.032,.129,.064,.226,.097,.354l.032,.193c0,.097,.032,.258,.064,.322s.161,.193,.226,.258c.097,.096,.193,.225,.29,.322,.547,.58,1.063,1.16,1.611,1.74l1.289,1.45c.354,.387,.708,.773,1.063,1.128,.451,.515,.87,.966,1.289,1.417,.451,.451,.87,.935,1.321,1.386l.097,.097c.58,.58,1.192,1.224,1.837,1.74,.032,.032,.096,.032,.128,.032h.032c.097,0,.161,.032,.258,.032,.064,.032,.161,.032,.226,.064,.258,.097,.516,.226,.741,.419,.226,.129,.387,.29,.516,.483,.032,.064,.064,.097,.097,.161,.032,.032,.032,.097,.064,.161,0,.097,0,.193-.032,.29s-.097,.161-.161,.226c-.064,.032-.097,.064-.161,.064l.129,.129c.161,.226,.354,.419,.547,.645,.161,.226,.354,.451,.483,.709,.032,.032,.064,.097,.064,.161Zm-.161,.032c-.032-.032-.032-.064-.064-.097-.129-.226-.29-.451-.483-.677-.161-.226-.354-.419-.547-.645l-.032-.032c-.064-.064-.129-.129-.193-.226l-.129-.161h.322c.032,0,.064-.032,.097-.064,.064-.032,.097-.064,.129-.129v-.193c0-.032-.032-.097-.032-.129-.032-.032-.064-.064-.064-.097-.129-.193-.29-.354-.483-.483-.226-.161-.483-.29-.709-.354-.064-.032-.129-.064-.226-.064-.064,0-.129-.032-.193-.032h-.032c-.064,0-.128-.032-.193-.032l-.032-.032c-.677-.516-1.289-1.192-1.869-1.772l-.097-.097c-.419-.451-.87-.902-1.321-1.386s-.87-.935-1.289-1.417c-.354-.387-.708-.773-1.063-1.16l-1.289-1.417c-.548-.58-1.063-1.16-1.611-1.74-.097-.097-.193-.193-.29-.322-.097-.097-.193-.193-.258-.29s-.097-.29-.097-.387l-.032-.193c-.032-.097-.032-.193-.097-.29-.032-.097-.064-.193-.129-.29s-.097-.161-.161-.258c-.064-.064-.129-.129-.193-.226-.193-.161-.386-.354-.58-.516l-.097-.097c-.097-.096-.193-.161-.258-.257l-.032-.064,.064-.064c.387-.258,.741-.483,1.095-.677,1.128-.741,2.255-1.482,3.416-2.223l1.579-.999c.548-.354,1.063-.709,1.579-1.031l.58-.322c.161-.129,.354-.258,.548-.354l.097-.064c.129-.064,.226-.129,.322-.193l.064-.032,.032,.032c.064,.032,.161,.064,.193,.097l.097,.064c.193,.097,.451,.226,.612,.097,.064-.064,.064-.161,.064-.226s-.064-.161-.097-.258l-.064-.097,.097-.032c.354-.129,.87-.322,1.353-.483,.516-.129,.999-.226,1.289-.129h.032c.128,.129,.225,.258,.354,.354,.129,.129,.258,.226,.387,.322,.161,.064,.322,.161,.451,.226,.161,.064,.322,.097,.516,.161,.29,.064,.612,.064,.902,0,.322-.032,.612-.161,.87-.354,.129-.097,.258-.193,.387-.322s.258-.29,.354-.451c.097-.129,.161-.322,.258-.483,.064-.161,.129-.354,.161-.515,.064-.354,.097-.709,.064-1.031,0-.354-.097-.677-.226-.999l.161-.129,2.739,1.965,.064,.032,.354,.032h.354c.322,.032,.548,.064,.806,.129,.226,.064,.451,.129,.773,.29h.032c1.45,.548,2.964,1.289,4.382,1.998l.29,.129c2.03,.999,4.027,1.998,6.025,3.029l3.254,1.643c.87,.451,1.74,.902,2.545,1.289,1.934,.967,3.867,1.966,5.864,2.9,1.965,.935,3.931,1.837,5.929,2.642l.097,.064c1.45,.58,5.639,2.288,6.927,1.482,.161-.129,.354-.258,.516-.387s.354-.258,.516-.387c.193-.129,.386-.258,.58-.419l-.129-.193c-.451-.676-.966-1.353-1.546-2.03-.58-.645-1.192-1.289-1.772-1.869-.226-.226-.451-.451-.677-.645-.226-.226-.451-.451-.677-.645-.419-.387-1.127-.999-1.901-1.546-.741-.516-1.514-.935-2.094-.935-.097,0-.193,0-.29,.032-.097,0-.193,.064-.258,.097l-.064,.032h-.032c-.097-.064-.29-.193-.354-.258h-.032c-1.74-1.127-3.447-2.191-5.155-3.254-1.482-.935-2.964-1.869-4.35-2.739-1.418-.902-2.868-1.836-4.317-2.771l.064-.161h.258l.032,.032,10.665,4.801c.322,.161,.741,.58,1.031,.87l.161,.193c.258,.258,.612,.645,.902,.516,.097-.032,.129-.097,.129-.193,.032-.129,0-.258-.032-.419l-.064-.161,.193,.064c.129,.032,.258,.096,.354,.161l.322,.129c.193,.064,.419,.161,.645,.258,.193,.064,.483,.161,.612,0,.064-.032,.097-.129,.097-.193,0-.097-.064-.193-.129-.258-.29-.386-.806-.612-1.225-.837l-.097-.032-.387-.193v-.161c.129-.032,.226-.064,.29-.161,.064-.032,.097-.129,.097-.258,0-.387-.677-.419-1.031-.419-.193,0-.419,0-.645-.032-.258,0-.741,0-.902-.064h-.032c-3.383-1.675-6.831-3.479-10.278-5.059l-.032-.032-.032-.064c-.097-.193-.193-.354-.322-.483-.161-.129-.29-.226-.515-.29l-.226-.064,.226-.097c0-.032,.032-.032,.064-.064,.032,0,.064-.032,.064-.064,.097-.064,.129-.129,.161-.193,.032-.097,.064-.193,.064-.258,0-.097-.032-.193-.032-.258-.032-.097-.097-.161-.129-.226h-.032c-.064-.097-.129-.161-.193-.193-.097-.064-.193-.129-.258-.161-.097-.064-.161-.097-.258-.129-.064-.032-.161-.064-.258-.097l-.29-.129c-.935-.451-1.965-.902-2.997-1.16-.709-.161-1.482-.226-2.223-.29-.451-.032-.902-.097-1.353-.129-.387-.032-1.031-.483-1.418-.741l-.29-.193,.064-.097,.129-.129c.032-.064,.064-.097,.097-.161,.097-.097,.161-.193,.193-.322,.064-.097,.097-.226,.097-.354v-.064l.161-.032c.161-.064,.322-.097,.483-.161s.29-.129,.451-.226c.064-.032,.129-.097,.193-.129,.064-.064,.129-.097,.193-.161,.064-.032,.097-.097,.161-.161,.032-.064,.097-.097,.129-.161s.097-.097,.129-.129l.097-.097c.064-.064,.129-.097,.161-.129,.064-.032,.097-.064,.161-.097,1.031-.644,2.062-1.289,3.093-1.965l3.254-2.062c.097-.064,.193-.097,.29-.161l.032-.032c.418-.226,.934-.516,1.127-.902,.161-.386,.87-.161,1.192-.096l.064,.032c.064,.032,.128,.032,.193,.064l10.375,2.61c.645,.193,1.418,.709,2.03,1.096l.064,.064,.129,.064c.29,.226,.805,.58,1.031,.387,.097-.064,.129-.129,.129-.226-.032-.129-.064-.258-.161-.387l-.097-.161,.226,.032c.161,.032,.354,.097,.451,.129l.258,.064c.354,.064,.741,.161,1.063,.193,.097,0,.193,.032,.322,.032,.097,0,.193,0,.258-.032,.064,0,.097-.032,.129-.064s.064-.064,.097-.129v-.161c0-.032-.032-.097-.064-.129-.064-.064-.097-.097-.161-.129l-.193-.097c-.548-.226-1.16-.451-1.74-.612l-.097-.032v-.161c.097-.064,.161-.097,.226-.161,.064-.032,.097-.097,.097-.161,.032-.354-.483-.387-.773-.419h-.032c-.29,0-.612,0-.902,.032h-.129c-.516,0-1.192,.032-1.676-.129v-.032c-1.869-.548-3.77-1.16-5.639-1.74v-.032c-1.74-.548-3.447-1.096-5.188-1.611h-.032c-.064-.032-.097-.032-.193-.064l-.032-.032c-.097-.032-.193-.129-.258-.193-.064-.097-.129-.161-.226-.193-.064-.064-.129-.129-.226-.161-.129-.064-.258-.097-.387-.129s-.258-.064-.419-.097c-1.611-.257-3.416-1.16-4.994-1.45-.354-.097-.806-.129-1.224-.064-.29,.032-.58,.161-.806,.354-.064,.097-.129,.161-.193,.29-.032,.097-.064,.193-.097,.322,0,.097,0,.193,.032,.322,.032,.097,.064,.193,.129,.29,.097,.226,.258,.419,.451,.548,.226,.161,.483,.258,.741,.322v.161l-.322,.161-.354,.161c-.387,.161-.806,.322-1.192,.516-.451,.161-.837,.354-1.224,.483-.612,.258-1.257,.515-1.901,.805-.644,.258-1.289,.516-1.901,.773-.032,0-.064,.032-.064,.032l-.064,.032c-.226,.097-.387,.193-.677,.161-.193,0-.386,0-.58,.064-.193,.032-.387,.097-.58,.161h-.032c-.064,.032-.129,.064-.193,.064h-.097c-.064-.064-.129-.097-.226-.129-.064,0-.161-.032-.258-.032h-.451l-.064-.032c-.032-.032-.097-.064-.161-.097s-.129-.032-.193-.064c-.516-.161-.999-.419-1.482-.677l-.451-.226c-.87-.419-2.191-1.095-3.028-1.095-.161,0-.29,.032-.451,.064-.129,.097-.29,.193-.387,.29s-.161,.161-.226,.257c-.064,.097-.097,.226-.161,.322-.032,.097-.064,.226-.097,.322,0,.129-.032,.226-.032,.354,0,.161,.032,.354,.097,.516s.161,.29,.29,.419c.258,.257,1.225,.676,1.772,.87l.516,.226c.354,.129,.709,.29,1.031,.451l.128,.032-.128,.097c-.064,.064-.129,.129-.226,.193s-.193,.129-.258,.129l-.032-.032h-.064l-.097-.032c-.064-.032-.129-.064-.161-.097-.064-.032-.129-.064-.193-.129h-.032c-.129-.064-.258-.129-.387-.226l-.064-.032c-.451-.258-.902-.516-1.353-.612-.483-.129-.935-.129-1.482,.097l-.387,.129c-.708,.322-1.869,.806-2.545,.226-.193-.129-.387-.29-.58-.387s-.419-.161-.645-.161h-.097q-.032,0-.032-.032h-.032c-.064-.032-.161-.097-.226-.161l-.258-.193c-.193-.161-.419-.322-.612-.451s-.418-.226-.676-.354c-.258-.097-.548-.161-.838-.193-.258,0-.548,.032-.806,.129-.129,.032-.257,.097-.354,.193-.129,.064-.226,.161-.29,.258-.097,.097-.161,.225-.193,.354s-.064,.29-.064,.419c0,.29,.097,.58,.258,.838,.129,.29,.322,.548,.515,.741l.032,.032,.032,.032c.258,.129,.451,.226,.677,.354,.226,.097,.451,.193,.709,.29l.419,.193-.032,.161-1.16,.193c-.387,.064-.773,.161-1.16,.226h-.032c-.419,.097-1.321,.322-1.515,.645-.161,.226-.645,.161-.902,.129h-.096c-.129-.032-.29-.032-.419-.032-1.45,.032-2.9,.032-4.382,.032-.29,.032-.612,.032-.934,.032-.258,0-.387,0-.612-.193-.064-.032-.097-.064-.161-.097-.193-.161-.451-.354-.677-.516l-.322-.226c-.516-.387-1.128-.805-1.579-1.256l-.032-.032c-.322-.29-.741-.548-1.192-.677-.354-.097-.709-.129-1.096,0-.097,.032-.226,.064-.322,.129s-.193,.161-.258,.226l-.193,.29c-.032,.129-.064,.226-.097,.354-.064,.322,0,.612,.161,.902,.161,.322,.419,.612,.709,.838,.032,.064,.097,.097,.161,.161h.032c.097,.064,.258,.193,.387,.29l.097,.129-.193,.064c-.29,.097-.677,.258-.902,.451-.226,.193-.322,.419-.29,.612,.032,.226,.161,.451,.322,.677q.032,0,.032,.032c.193,.129,.354,.322,.548,.483l.032,.032c.548,.548,1.063,.999,1.643,1.321,.58,.322,1.225,.548,2.03,.58l2.159-.226h.29c.128,.032,.225,.032,.322,.064s.193,.097,.258,.129c.097,.064,.161,.129,.258,.193,.129,.129,.258,.226,.419,.322,.129,.097,.29,.161,.483,.226l.193,.064,.193,.097,3.383,2.481-8.087,6.766c-.064,.097-.161,.161-.258,.258-.097,.064-.193,.129-.29,.226h-.032c-.097,.097-.226,.193-.258,.29-.097,.193-.032,.354,.064,.548,.032,.064,.097,.161,.129,.225l-.451,.677,2.255,2.642,.032,.032c.097,.064,.161,.064,.258,.097h.322l.032,.064c.097,.129,.193,.29,.322,.419,.097,.161,.226,.322,.354,.451,.129,.161,.29,.322,.418,.483s.29,.322,.419,.483l.032,.032c.226,.161,.419,.29,.612,.387s.419,.193,.677,.226v.032c.064,0,.193,.032,.226,.064,.097,.097,.161,.161,.258,.193,.097,.064,.193,.129,.29,.161l.032,.032c.129,.064,.29,.129,.354,.226l8.99,8.828c.032,.064,.097,.29,.129,.387v.064c.032,.129,.064,.29,.129,.387l.387,.58c.161,.193,.322,.387,.483,.516l.097,.097,.097,.097c.032,.032,.097,.064,.161,.064s.097,0,.129-.032c.064,0,.097-.032,.097-.064,.032-.064,.064-.097,.064-.161v-.226l.161,.129c.161,.129,.322,.258,.516,.387,.161,.129,.322,.226,.483,.322,.032,.032,.097,.064,.161,.096,.032,.032,.096,.064,.128,.097,.064,0,.097,.032,.161,.032s.129-.032,.161-.032c.064-.032,.097-.064,.097-.129,.032-.032,.032-.064,.032-.096v-.129Zm-14.854-16.723c-.483-.612-1.998-2.126-2.223-2.352-.193-.226-.064-.354,.29,0l2.223,2.159c.097,.097,.097,.129,.161,.161,.129,.064,.29,.097,.451-.032l8.893-5.671c-.032-.032-1.063-.999-.999-.548,.258,1.418-.322,.612-.451,.419-.354-.483-.773-1.514-1.385-1.998l-1.708-1.385-6.766,5.67c-.483,.29,1.836,2.191,2.223,2.739-.612,0-2.288-2.255-2.739-2.32-.097,0-1.708,1.321-1.804,1.45,.258,.934,2.094,2.803,2.384,3.061,.354-.161,1.095-.709,1.514-.999,.29-.161,.129-.129-.064-.354Zm7.282-11.406c.709-.418,.516-.322,.645-.805,.064-.322,.645-.677,.677-.741l-6.251,.032,3.254,2.9,1.675-1.386Zm-11.212,10.987c.322,.354,1.192,1.676,1.869,2.094,.161,.064,.29,.032,.419,.032l-2.094-2.513-.193,.387Zm3.995,3.738c.032,.064,.129,.193,.129,.129-.097-.806,.645-1.354,.999-1.289-.838-.258-1.192,.516-1.128,1.16Zm87.897-58.834l.064,.064,2.61,.773c.258-.193,.322-.418,.193-.676l-2.159-.709c-.258-.064-.419-.064-.516,0-.709-.161-.87,.387-.29,.516,.064,.032,.032,0,.097,.032ZM15.631,179.79c-.419-.902,.354-1.546,1.224-.934-1.031-1.515-2.223,.419-1.224,.934Zm85.48-52.132l1.257,1.031c.161-.097,0-.129,.29-.129,.612,0,.966-.032,1.643,0,.419,.032,.516,.161,.935-.064-.032-.032,0,0-.032-.064-.193-.161-2.384-1.224-2.771-1.031,.032,.097,.097,.129,.322,.226,.645,.29-.097,.29-.354,.29-.806,0-1.063-.516-1.354-.677-.129-.032-.29-.064-.418-.064,.161,.161,.29,.322,.483,.483Zm12.115,11.567c.805,.483,4.221,1.901,4.897,1.644l.837-.548c-.547-.838-.966-1.354-1.675-1.998-.064-.064-.064-.097-.161-.129-.097,.226,.226,.129-.354,.547-.193,.129-.193,.193-.483,0-.226-.193-2.449-1.869-2.545-1.901-.258,0-.902,1.547-.902,1.933,0,.29,.258,.354,.387,.451Zm-8.796-9.602h.032c.161-.032,.097-.161,.161-.29,0,0,.387-.387,.064-.387-.032,0-.87,.161-.838,.451,.29,.064,.451,.226,.58,.226ZM29.453,162.423c-.644-.419-.773-.612-.934-1.031-.161-.419-.258-.451-.58-.129-1.385,1.289-1.965,.161-2.771,.097-.032,.226-.097,.418-.419,.418H15.889l.58,.483,6.669,.097c2.126,.032,4.188,.032,6.315,.064Zm75.718-31.705c-.29-.193-.806-.58-1.096-.741-.547-.322-.773,.064-1.643,.29l10.278,5.993c.322,.129,.29,.193,.645,0,.129-.064,.226-.129,.097-.225-.129-.129-.322-.226-.483-.322-2.578-1.644-5.155-3.319-7.733-4.93-.032-.032-.064-.032-.064-.064Zm-2.288-1.869l.097,.097c.837,.612,.676-.064,1.417-.064-.387-.226-1.127-.129-1.514-.032Zm-13.855-.483c.193,.097,.258,.032,.354,.032v-.097c-.064-.032-.29-.193-.354,.064Zm15.788-6.283l-3.641,2.32c-.161,.097-.193-.064-.354-.064-.097-.032-.58,.129-.676,.258,.129,.129,.161,.58,.161,.612,.418-.097,.483-.258,.708-.548,.129-.161,.29-.193,.451-.29,1.096-.709,2.159-1.386,3.254-2.094,.193-.129,.193-.226,.097-.193Zm-5.316,2.255c-1.031,0-1.192,1.901-.645,1.901,.773,0,1.063-1.063,.838-1.708-.032-.097-.097-.193-.193-.193Zm-2.03,4.897c.193,.193,3.512,1.096,3.576,1.192-.708-.064-1.998-.451-2.32-.451,.097,.097,.097,.064,.226,.129,.612,.226,.709,.419,.999,.645,.29,.257,.387,.161,.29,.515l-.097,.322c.29-.29,.805,.29,1.16,.29,.193,0,.129-.548,.419-.548,.387,0,4.769,2.191,4.607,2.288-.129,.258-.516,1.225-.419,1.386,.064,.129,2.449,1.256,2.514,1.256,.161,0,.386-1.192,.515-1.353,.097-.097,.161-.097,.322-.032,.516,.226,2.997,1.482,3.222,1.482,0-.032-.064-.064-.161-.129l-9.956-5.767c-.226-.097-.419-.097-.677-.161,.161-.129,1.386-.387,1.772-.645-.129-.193-.322-.322-.516-.451-.064-.097-.097-.097-.193-.129-.161,.322-.451,.419-.806,.516-.322,.129-.612,.032-.902-.193-.226-.193-2.738-2.126-2.771-2.126-.419,0-.967,1.804-.806,1.965Zm1.901-2.513c.161-.032,.193-.032,.226-.193-.58-.129-.226-.193-.838-.032-.644,.129-1.16,.354-1.772,.612-.354,.129-.258,.29-.58,.193l-2.03-.87c.097,1.128-.193,1.901-.645,2.449,.838,.548,2.094,1.063,2.997,1.515,.193,.032,.129-.161,.193-.29,.258-.902,.548-2.062,.902-2.868,.064-.129,1.224-.419,1.546-.516Zm-6.637,4.704c-.935,1.74,1.289,1.74,1.289,0,0-.902-.934-.612-1.289,0Zm.805-.741c-.032-.29-.386-.354-.708-.29-.354,.064-.709,.483-.87,.934-.129,.29-.193,.612-.193,.806s.161,.29,.354,.419c.064,.064,.193,.161,.193,0-.064-.806,.226-1.836,1.224-1.869Zm-2.255,.515l-1.998,1.257,.226,.193c.032-.064,1.965-.645,2.094-.677,0-.258,.258-.999,.483-1.192,0,0-.354,.161-.806,.418Zm25.229,7.443c.161-.097,.258-.161,.387-.29-.032-.161-1.869-1.901-2.481-1.901-.161,0-.354,.161-.419,.258,.193,.29,2.094,1.611,2.513,1.933Zm-4.156-2.094c-1.031-.451-2.03-.966-3.061-1.45-.161-.064-.193-.097-.258-.032-.129,.58-.612,1.256,0,1.514,.741,.354,1.418,.967,2.255,.967,.322,0,1.386-.387,1.386-.87,.064-.064-.161-.064-.322-.129Zm-10.665-4.994c-.032,.161-.064,.193-.161,.387-.097,.258-.29,.097-.29,.097-.129-.032-.837-.548-.934-.322-.064,.064-.161,.354-.032,.419l5.316,2.707c.225-.354,.451-1.031,.483-1.257-.547-.322-4.253-2.159-4.382-2.03Zm-2.03-.805c-.161-.258-.064-.193-.354-.258-.193-.064-1.192-.58-1.417-.709l-.58-.258c-.097,.387-.258,.612-.258,1.063l2.674,1.289c.129,.064,.097,.064,.161-.064,.032-.161,.097-.387,.161-.516,.129-.322-.161-.226-.387-.547Zm-17.141,6.057c-.097,.064,.129,.097,.322,0l6.379-4.027-.161-.161-6.541,4.188ZM13.73,177.051c-.161,.129,.226,.129,.516,.032l10.729-6.766-.29-.258-10.955,6.992Zm51.392,4.06c1.321,.806,7.089,3.158,8.216,2.771l1.386-.935c-.902-1.385-1.611-2.288-2.835-3.383-.097-.097-.097-.161-.258-.193-.161,.386,.419,.225-.58,.902-.354,.226-.354,.354-.806,.032-.386-.354-4.124-3.125-4.285-3.222-.419,0-1.482,2.578-1.482,3.254,0,.516,.418,.612,.644,.773Zm-19.3-12.824c-.097,.226-.129,.29-.258,.612-.161,.451-.516,.193-.516,.193-.193-.064-1.417-.934-1.579-.58-.064,.129-.226,.644-.064,.708l8.925,4.511c.418-.548,.741-1.676,.837-2.062-.902-.58-7.153-3.641-7.346-3.383Zm12.727,5.896c-.258-.064-.322-.161-.451-.032-.226,.966-.999,2.062,0,2.545,1.225,.58,2.384,1.579,3.77,1.579,.58,0,2.32-.612,2.32-1.45,.097-.097-.226-.097-.516-.226-1.74-.741-3.416-1.611-5.123-2.417Zm12.05,5.96c.29-.193,.483-.29,.677-.516-.097-.257-3.158-3.157-4.188-3.157-.258,0-.548,.258-.677,.419,.322,.483,3.479,2.706,4.188,3.254Zm-25.744-18.366l2.095,1.708c.257-.193,0-.226,.483-.226,1.031,0,1.644-.097,2.739,0,.709,.064,.87,.29,1.579-.097q-.032-.064-.097-.129c-.29-.258-3.963-2.03-4.575-1.74,.032,.193,.161,.226,.483,.387,1.128,.483-.097,.483-.547,.483-1.386,0-1.805-.87-2.256-1.127-.258-.032-.483-.097-.741-.097,.29,.258,.483,.516,.837,.837Zm5.542,3.254h.032c.29-.032,.193-.29,.29-.483,0,0,.645-.645,.129-.645-.064,0-1.482,.29-1.385,.741,.418,.129,.741,.387,.934,.387Zm-.612,.612c-.902-.548-1.256,.064-2.706,.451l17.173,10.021c.547,.258,.483,.354,1.095,0,.193-.097,.354-.193,.161-.354-.226-.258-.548-.354-.805-.548-4.318-2.739-8.635-5.542-12.953-8.249-.064-.064-.097-.064-.129-.097-.483-.322-1.354-.966-1.837-1.224Zm-1.998-1.901l.193,.129c1.418,1.031,1.096-.097,2.352-.097-.612-.387-1.869-.226-2.545-.032Zm-5.349,3.157c-.29-.418-.161-.29-.612-.418-.322-.097-1.998-.967-2.353-1.192l-.966-.419c-.193,.677-.483,1.031-.483,1.74l4.479,2.223c.226,.064,.193,.064,.258-.161,.097-.258,.193-.645,.29-.87,.193-.516-.258-.387-.612-.902Zm-14.016,.773l-3.383,2.126,.387,.322c.064-.097,3.287-1.128,3.512-1.192,0-.419,.451-1.644,.773-1.966,0,0-.58,.258-1.289,.709Zm-10.762-6.476c-.258-.322-.967-.902-1.385-1.321-.193-.161-1.869-.097-2.385-.129-.257,0-.161,.387,.29,.773,.29,.193,.935,.741,1.192,.773,.354,.064,.806,.097,1.224,.097,.516,0,.838,.129,1.063-.193Zm9.988,1.546c-.677,0-1.353,.064-2.062,.064-.29,1.224-1.354,1.095-1.644,1.514,1.321,.967,2.578,1.837,3.899,2.771,.322,.226,.322,.161,.645-.032l2.739-1.772c.387-.29,.29-.258,.29-.483-.419-.097-2.256-1.579-3.061-1.933-.226-.097-.516-.129-.806-.129Zm4.64-3.093c-1.514-1.063-2.9,1.579-2.159,2.481,1.128,1.515,3.544-.741,2.159-2.481Zm6.444,4.704c.354,.354,5.928,1.869,6.025,1.998-1.224-.097-3.351-.709-3.898-.709,.129,.161,.129,.064,.354,.161,1.031,.419,1.224,.709,1.675,1.127,.483,.419,.677,.258,.516,.838l-.161,.548c.483-.516,1.353,.483,1.901,.483,.354,0,.258-.902,.741-.935,.612,0,7.926,3.673,7.701,3.867-.193,.386-.87,2.03-.677,2.32,.097,.193,4.06,2.062,4.157,2.062,.29,0,.676-1.965,.902-2.255,.161-.161,.258-.129,.483-.032,.935,.387,5.059,2.481,5.445,2.481,0-.064-.097-.097-.29-.226l-16.658-9.634c-.387-.193-.709-.193-1.128-.29,.258-.226,2.32-.677,2.932-1.096-.193-.29-.516-.548-.806-.773-.161-.097-.193-.129-.354-.193-.29,.548-.773,.709-1.353,.902-.548,.161-1.031,.032-1.482-.354-.386-.322-4.575-3.544-4.672-3.544-.677,0-1.579,2.996-1.353,3.254Zm-6.573,2.481c-.064-.483-.612-.612-1.192-.515-.548,.097-1.16,.805-1.45,1.579-.193,.451-.322,.999-.322,1.321,0,.354,.29,.483,.612,.709,.129,.097,.29,.29,.29,0-.064-1.321,.419-3.061,2.062-3.093Zm9.763-6.669c.257-.064,.322-.064,.386-.322-.966-.226-.386-.29-1.417-.064-1.063,.226-1.933,.58-2.932,1.031-.612,.258-.451,.483-.999,.322l-3.383-1.418c.161,1.869-.322,3.158-1.063,4.06,1.386,.934,3.512,1.804,4.962,2.545,.322,.064,.258-.258,.354-.483,.451-1.482,.902-3.448,1.514-4.769,.129-.226,2.062-.741,2.578-.902Zm-11.084,7.894c-1.579,2.9,2.126,2.9,2.126,0,0-1.546-1.546-1.063-2.126,0Zm-6.219-5.155c.322,.161,.451,.097,.612,.064v-.161c-.129-.032-.516-.29-.612,.097Zm-12.566-4.35s-3.254-2.481-3.641-2.771c-.87-.29-1.708,.387-1.128,1.417,.032,.097,3.254,2.868,3.609,2.964-.419-.548,.644-1.514,1.16-1.611Zm-4.188,1.095c-.129-.097-.741,0-.419,.322,.419,.419,1.063,1.386,1.579,1.515,.226,.064,.483,.032,.709,.032v-.161c-.322-.097-1.514-1.354-1.869-1.708Zm3.705,1.192c1.386,.709-.644-.548,.451-1.192,.258-.161,.612-.193,.902-.129,.677,.129,.129-.387-.29-.387-1.192,0-1.708,1.257-1.063,1.708Zm12.792-4.188c.451,.29,.483,.418,.226,1.031-.064,.193-.064,.258,.064,.419,.451,.419,2.932,1.836,3.673,2.32,.354,.226,.483,.999,.87,1.417,.129,.161,.129,.193,.354,.226-.483-2.126,1.096-3.479,2.868-3.383-.129-.354-4.35-2.255-4.962-2.449-.29-.097-.837-.483-1.804-.032-.129,0-.322-.129,0-.354,.226-.226,.354-.161,.483-.258,.097-.064,.129-.129,.129-.29-.58-.419-1.225-.387-1.289-.419-.032,0-.741-.709-.935-.483-.097,.097-.515,1.354-.418,1.515,.129,.29,.322,.483,.741,.741Zm-7.604,3.189c.29,.419,1.063,.935,1.482,1.386,.161,.161,.322,.29,.708,.29h5.091c.129,0,.129-.064,.193-.129l-.097-.097-1.708-1.386c.354-1.482,3.544,.709,4.157-.193l-1.869-1.16c-.419-.258-2.449,.58-3.254,.708-.548,.032-1.386-.547-1.805-.515-.709,.064-1.514-.032-2.288,.032,.193,.257,.902,.515,.902,.87s-1.192,.193-1.515,.193Zm-2.255-.548c-.097-.258-.516-.515-.741-.515s-.612-.064-.612,.193c0,.322,.805,.451,1.353,.322Zm-4.06,2.385c-.129,0,.161,.322,.226,.515,.419,.097,2.61,.032,2.868-.322-.902-.612-2.417-.128-3.093-.193Zm1.095-.548c-.257-.064-.451-.451-.741-.451-.677-.032-1.611-1.225-2.191-1.644-.161,.032-.193,.064-.322,.161,.193,.258,1.192,1.192,1.546,1.547,.29,.258,.709,.612,1.096,.612,.29,0,.515-.064,.612-.226Zm23.489-4.64l5.284,2.545c-.322-2.577,1.321-3.061,1.74-3.254l-3.447-1.45c-.322-.161-1.289-.612-1.644-.612-1.933,0-2.062,1.74-1.933,2.771Zm.709,3.447c-.226,.097-.29,0-.322,.226,.387,0,1.128,.451,1.386,.483-.064-.258-.999-.516-.741-.709,1.74-1.031,2.739-.451,3.705-.29,.097,.032,.806,0,.677-.064-1.611-1.031-3.834-2.03-5.381-2.739-.354-.161-.322-.129-.322-1.289-.516,0-.805,.548-1.192,.548-.806,0-1.804-1.063-2.868-1.192-.161,0-.419,.129-.451,.258,1.772,.387,6.444,2.674,7.958,3.512,.741,.451-1.417,.418-2.449,1.256Zm11.535-10.858l.097,.097,4.415,1.289c.387-.322,.483-.677,.29-1.128l-3.577-1.16c-.451-.129-.709-.161-.902-.032-1.16-.29-1.482,.676-.483,.87,.129,.032,.064,0,.161,.064Zm-.193,2.32c.29-.161,.708-.322,1.063-.322,.516,.032,.935,.226,1.385,.451,.354,.161,.999,.483,1.354,.483,.709,0,.677-.258,1.321-.644,.193-.097,.225-.064,.225-.354-1.031-.226-3.125-1.096-4.06-.902-.902,.226-2.707,1.192-3.577,1.579,.58,.806,1.74,.064,2.288-.29Zm3.995,1.031l-6.122,3.867c-.29,.161-.322-.097-.58-.129-.193-.032-.999,.226-1.128,.419,.193,.225,.226,.999,.258,1.031,.677-.129,.773-.451,1.16-.87,.258-.29,.483-.354,.773-.547,1.804-1.16,3.641-2.288,5.445-3.448,.354-.226,.322-.419,.193-.322Zm-8.281,3.351c.097,.064,.193,.322,.322,.354,.226,.032,1.031-.258,1.353-.322,.483-.097,0,.451,1.031-.226l2.417-1.547c.483-.354,.064-.386-.322-.515l-1.321-.548c-.773-.258-.677-.226-1.16-.032-1.289,.612-1.063,.677-2.352,.193-.451-.161-.387-.258-1.127-.258-.419,0-.935,.419-1.321,.645-.612,.354-1.869,.129-1.643,.483,.064,.097,3.641,1.482,4.124,1.772Zm-7.797-1.289c.097-.258,.387-.548,.645-.709,.387-.257,.516-.257,.29-.386l-2.384-1.096c-1.225,0-1.579,1.192-.902,1.611,.548,.354,1.031,.516,1.675,.741,.322,.129,.451,.29,.677-.161Zm7.153,1.708c-1.74,0-1.965,3.125-1.063,3.125,1.256,0,1.74-1.772,1.417-2.803-.064-.161-.161-.322-.354-.322Zm-9.505-4.253c-.258-.129-.741-.354-1.127-.29-.258,.064-.483,.29-.612,.58-.451,.902,.645,1.354,.773,1.289-.193-.387,.225-1.579,.966-1.579Zm74.171,53.711c-.258-.322-.322-.097-.451-.516-.805,0-.451,.193-1.16,.387-.838,.258-.548-.322-1.031-.322-.29,0-.193,.032-.419,.193,.032,.516,1.386,1.966,1.837,2.256,.064-.773,.386-1.805,1.224-1.998Zm11.664-22.651c1.192-.709,.87-.58,1.031-1.385,.161-.516,1.128-1.128,1.225-1.257l-10.633,.064,5.51,4.897,2.868-2.32Zm-16.658-9.537c-.032-.032-5.542-4.253-6.187-4.704-1.482-.548-2.867,.644-1.933,2.417,.097,.129,5.542,4.833,6.122,4.994-.709-.935,1.095-2.578,1.998-2.707Zm10.472,4.511c.258,.29,.548,.451,1.225,.451h8.603c.193,0,.193-.064,.354-.161-.097-.161-.129-.129-.161-.161l-2.9-2.384c.58-2.513,5.961,1.192,6.992-.354l-3.125-1.933c-.709-.419-4.189,.999-5.542,1.224-.902,.032-2.352-.934-3.029-.902-1.192,.097-2.545-.032-3.867,.064,.322,.451,1.482,.902,1.482,1.482s-2.03,.354-2.545,.354c.516,.677,1.772,1.546,2.513,2.32Zm-11.342-.677c2.385,1.192-1.063-.902,.806-2.03,.419-.258,.999-.29,1.515-.193,1.16,.226,.226-.645-.483-.645-2.03,0-2.868,2.095-1.837,2.868Zm-6.218-2.03c-.226-.161-1.321,.032-.741,.612,.709,.709,1.772,2.32,2.707,2.513,.354,.097,.806,.032,1.192,.032v-.258c-.58-.129-2.578-2.288-3.158-2.9Zm41.951-13.049c-.451-.193-1.256-.58-1.901-.451-.451,.097-.805,.483-1.063,.967-.741,1.514,1.095,2.288,1.321,2.191-.322-.677,.387-2.674,1.643-2.707Zm-5.38,17.753c-1.063-.708-1.321-1.031-1.579-1.708-.258-.741-.451-.773-1.031-.258-2.288,2.191-3.319,.29-4.64,.161-.097,.419-.193,.709-.708,.709h-15.047l.999,.87,11.31,.129c3.608,.064,7.121,.064,10.697,.097Zm-20.009-2.03c-.419-.58-1.611-1.546-2.352-2.288-.29-.226-3.125-.129-4.027-.193-.419-.032-.29,.645,.516,1.321,.483,.322,1.579,1.224,1.998,1.321,.58,.097,1.385,.161,2.094,.161,.87,0,1.417,.161,1.772-.322Zm-5.349-3.254c-.161-.419-.87-.87-1.224-.87-.419,0-1.063-.097-1.063,.322,0,.58,1.386,.741,2.288,.547Zm-4.994,3.125c-.451-.097-.773-.773-1.289-.806-1.16-.032-2.739-2.062-3.706-2.771-.258,.064-.322,.129-.515,.258,.322,.483,1.998,2.062,2.61,2.642,.451,.419,1.192,1.031,1.836,1.031,.483,0,.87-.064,1.063-.354Zm40.984-2.03c-.386,.161-.483,.032-.58,.387,.708,0,1.933,.773,2.384,.837-.129-.451-1.676-.934-1.257-1.192,2.964-1.804,4.672-.806,6.283-.516,.193,.032,1.385,.032,1.127-.129-2.739-1.772-6.508-3.415-9.086-4.607-.612-.29-.58-.226-.58-2.191-.87,0-1.353,.934-1.998,.934-1.386,0-3.061-1.804-4.897-2.062-.258,0-.645,.226-.709,.419,2.997,.709,10.923,4.543,13.468,5.993,1.289,.741-2.384,.708-4.157,2.126Zm-19.848,14.402c-.29,.419,1.128,1.644,1.418,1.869l5.091-3.19c-.741-.999-5.51-4.157-6.767-5.059-.58-.516-.837-.741,0-1.16,.645-.322,1.16-.58,1.515-1.16-.451-.193-1.289-.516-1.837-.516-.934,0-.773-.064-1.256,.516-.387,.451-.064,.741-.773,1.482l-3.287,2.868,2.449,1.901c1.772,1.611,4.801,.645,6.057,2.771-.451,.129-2.384-.612-2.61-.322Zm18.559-23.649c.226-.451,.709-.902,1.127-1.192,.645-.419,.87-.451,.483-.645l-4.027-1.836c-2.062,0-2.674,1.998-1.547,2.674,.935,.645,1.772,.902,2.835,1.289,.58,.258,.773,.483,1.128-.29Zm-16.497,14.338v-.258c-.225-.032-.902-.451-1.063,.193,.58,.258,.773,.129,1.063,.064Zm5.51,6.959l4.64-2.997c.644-.483,.515-.386,.515-.805-.773-.161-3.866-2.674-5.22-3.287-.386-.161-.87-.193-1.353-.193-1.16,0-2.32,.064-3.48,.064-.483,2.094-2.288,1.869-2.803,2.61,2.255,1.643,4.35,3.093,6.605,4.704,.548,.387,.548,.258,1.095-.097Zm-7.024-17.625c.773,.483,.87,.741,.419,1.74-.129,.354-.129,.451,.129,.709,.741,.741,4.93,3.125,6.218,3.931,.548,.387,.838,1.675,1.45,2.417,.226,.258,.258,.322,.644,.387-.837-3.609,1.805-5.929,4.801-5.768-.226-.58-7.346-3.802-8.377-4.125-.483-.161-1.418-.837-3.093-.064-.193,0-.516-.193,0-.612,.419-.322,.645-.258,.838-.419,.161-.129,.193-.226,.226-.451-.999-.741-2.062-.709-2.159-.741-.064-.032-1.257-1.224-1.644-.837-.161,.193-.805,2.32-.677,2.578,.226,.483,.548,.837,1.225,1.256Zm13.468,5.091c-2.578-1.804-4.93,2.674-3.673,4.221,1.901,2.546,6.025-1.256,3.673-4.221Zm-.193,8.249c0-.354-.29-1.031-.322-1.611-.032-2.03,.129-.87-1.031-.87-2.578,0-2.03-.451-3.512-.451-.032,0-.322,.097-.354,.097,.387,.322,5.252,4.027,5.22,2.835Zm-36.796-4.801c-.29-.032,.258,.516,.354,.837,.709,.161,4.446,.064,4.865-.515-1.579-1.063-4.124-.226-5.22-.322Zm.354,22.876c.548,.612,1.998,2.803,3.158,3.512,.258,.161,.483,.064,.677,.064l-3.512-4.221-.322,.645Zm92.666,1.579c.29-.161,.58-.322,.258-.644-.387-.387-.935-.58-1.354-.902-7.346-4.64-14.628-9.376-21.974-13.984q-.129-.064-.226-.129c-.806-.58-2.255-1.675-3.061-2.094-1.579-.902-2.159,.129-4.64,.773l29.16,16.98c.87,.451,.805,.58,1.836,0Zm-11.664-3.898c1.515,.676,8.539,4.253,9.183,4.253,.032-.129-.161-.193-.451-.419l-28.29-16.335c-.645-.322-1.16-.322-1.869-.483,.419-.354,3.898-1.128,4.994-1.836-.354-.516-.935-.935-1.418-1.321-.258-.193-.322-.193-.612-.354-.451,.967-1.289,1.257-2.288,1.547-.902,.29-1.708,.032-2.481-.612-.676-.516-7.765-5.993-7.894-5.993-1.192,0-2.739,5.091-2.32,5.51,.612,.612,10.021,3.19,10.182,3.416-2.062-.161-5.67-1.225-6.573-1.225,.226,.258,.226,.129,.58,.29,1.74,.709,2.094,1.192,2.868,1.869,.805,.709,1.127,.483,.837,1.45l-.257,.934c.805-.87,2.255,.773,3.254,.773,.548,0,.387-1.514,1.225-1.514,1.031-.032,13.468,6.186,13.017,6.508-.322,.677-1.418,3.448-1.128,3.931,.193,.322,6.895,3.512,7.088,3.512,.483,0,1.128-3.351,1.515-3.834,.258-.258,.451-.226,.837-.064Zm-21.426-9.409c-.161,.419-.226,.516-.451,1.063-.258,.806-.838,.354-.838,.354-.387-.161-2.417-1.611-2.707-.999-.097,.226-.386,1.063-.097,1.225l15.112,7.636c.676-.967,1.256-2.868,1.417-3.512-1.546-.967-12.115-6.186-12.437-5.768Zm50.65,25.068c-.387,.322-.806,.612-1.192,.902-.29,.226-.58,.451-.902,.645-.29,.226-.612,.451-.902,.645-2.32,1.45-9.505-1.482-11.986-2.481l-.193-.097c-3.383-1.386-6.767-2.9-10.085-4.479-3.319-1.579-6.638-3.254-9.892-4.897-1.482-.741-2.932-1.482-4.35-2.191l-5.51-2.803c-3.383-1.74-6.799-3.479-10.214-5.155l-.483-.226c-2.384-1.16-4.93-2.416-7.411-3.318q-.032-.032-.064-.032c-.516-.258-.902-.387-1.257-.483-.387-.097-.773-.129-1.321-.161l-.58-.064-.612-.064h-.032l-.161-.064h-.032l-4.285-3.029c.129,.419,.193,.87,.226,1.289,.064,.612,0,1.224-.129,1.836-.097,.322-.193,.645-.322,.967-.129,.29-.29,.612-.451,.87-.193,.29-.387,.548-.612,.773s-.451,.451-.708,.612c-.483,.354-1.031,.58-1.579,.677-.547,.096-1.127,.096-1.708-.032-.29-.097-.58-.161-.87-.29s-.548-.258-.837-.419c-.226-.161-.483-.354-.677-.548-.226-.193-.419-.387-.612-.58-.419-.097-1.16,.032-1.933,.258s-1.547,.516-2.126,.741c.097,.129,.129,.258,.161,.387,.032,.226-.032,.451-.226,.644-.451,.387-.999,.097-1.386-.128l-.161-.064c-.064-.064-.161-.097-.258-.161-.161,.097-.322,.193-.451,.29l-.193,.097c-.322,.193-.612,.387-.935,.58l-.935,.612c-.934,.58-1.836,1.128-2.706,1.708l-2.675,1.708c-1.933,1.256-3.866,2.481-5.799,3.737-.58,.354-1.16,.741-1.675,1.063,.064,.097,.128,.161,.225,.226l.193,.193c.322,.29,.677,.612,.967,.902,.129,.129,.258,.258,.354,.419,.129,.129,.226,.258,.322,.419,.097,.193,.193,.354,.257,.548s.129,.387,.161,.58l.032,.322c.032,.161,.064,.419,.129,.548,.097,.129,.258,.29,.387,.451,.193,.161,.354,.354,.516,.516,.902,.966,1.804,1.965,2.707,2.964l2.191,2.417c.612,.676,1.192,1.321,1.804,1.965,.741,.838,1.482,1.643,2.191,2.384,.741,.806,1.482,1.579,2.255,2.352l.129,.129c.966,1.031,2.03,2.094,3.125,2.997,.064,.032,.161,.032,.258,.032h.032c.129,.032,.258,.064,.387,.064,.161,.032,.29,.064,.419,.129,.419,.161,.87,.387,1.257,.677,.354,.225,.676,.515,.902,.837,.032,.097,.097,.161,.129,.258,.032,.064,.064,.161,.097,.258,.032,.193,0,.354-.032,.516-.064,.161-.161,.29-.29,.387-.097,.064-.161,.097-.258,.129l.193,.193c.322,.354,.645,.708,.935,1.095,.322,.387,.58,.773,.837,1.192,.064,.097,.097,.161,.129,.257,.032,.097,.032,.193,.032,.29s-.032,.193-.064,.29c-.064,.161-.193,.29-.322,.354s-.29,.097-.451,.097c-.129,0-.258-.032-.354-.097-.129-.032-.226-.097-.29-.129-.097-.064-.193-.129-.29-.161-.258-.193-.548-.387-.837-.58-.226-.161-.451-.354-.677-.515l-.097,.193c-.064,.129-.193,.193-.29,.257-.129,.032-.258,.064-.387,.064-.161-.032-.322-.064-.451-.161l-.193-.193c-.064-.032-.129-.097-.193-.161-.258-.258-.515-.612-.805-.935-.258-.322-.483-.677-.677-.966-.161-.226-.226-.548-.258-.806l-.032-.064c-.032-.161-.097-.451-.129-.516l-15.176-14.95c-.129-.129-.354-.258-.548-.354l-.064-.032c-.161-.064-.354-.161-.515-.258l-.483-.387c-.032-.032-.161-.064-.226-.064h-.032c-.451-.129-.838-.258-1.192-.419-.387-.193-.709-.418-1.095-.708-.032-.032-.032-.064-.064-.097-.258-.258-.516-.516-.741-.806-.258-.29-.516-.58-.741-.838-.193-.257-.418-.515-.612-.741-.161-.226-.354-.483-.516-.709-.161,0-.29,0-.419-.032-.193-.032-.354-.097-.516-.193-.064-.032-.129-.064-.161-.129l-3.995-4.64,.805-1.192c-.032-.097-.096-.161-.128-.258-.161-.386-.354-.741-.129-1.192,.129-.258,.354-.419,.547-.58l.064-.032c.161-.129,.322-.258,.451-.387,.161-.129,.322-.257,.483-.386l13.372-11.213-5.381-3.963c-.097-.032-.193-.097-.29-.128l-.322-.129c-.354-.129-.612-.258-.87-.419s-.516-.322-.773-.58c-.129-.097-.226-.193-.354-.29-.129-.064-.258-.129-.387-.161-.161-.064-.322-.097-.451-.097-.161-.032-.322,0-.483,0-.934,.097-2.835,.387-3.673,.354-1.45-.064-2.578-.419-3.577-.999-.999-.547-1.901-1.353-2.868-2.288l-.064-.064c-.29-.29-.58-.58-.87-.837-.032-.032-.064-.032-.097-.064-.354-.419-.58-.838-.645-1.289-.032-.451,.129-.902,.58-1.321,.419-.354,.999-.612,1.514-.806-.161-.129-.322-.226-.419-.29l-.032-.032c-.129-.064-.226-.161-.322-.258-.548-.419-.999-.934-1.321-1.546-.258-.516-.354-1.096-.258-1.708,.032-.226,.097-.451,.193-.644,.097-.226,.226-.419,.354-.58,.161-.161,.354-.322,.516-.451,.193-.129,.419-.226,.644-.29,.677-.226,1.386-.161,2.03,.032,.805,.226,1.546,.709,2.159,1.225l.032,.032c.741,.741,1.772,1.482,2.674,2.126l.515,.387c.387,.258,.773,.548,1.192,.837,.032,.032,.032,.064,.064,.064l.161,.129c.322,.258,.483,.258,.838,.226h1.611c2.481-.032,4.93-.032,7.378-.064,.29-.032,.548,0,.806,.032l.161,.032c.354,.032,1.063,.129,1.192-.097,.419-.676,2.03-1.031,2.771-1.192l.064-.032c.645-.129,1.321-.29,1.998-.419,.451-.064,.935-.129,1.386-.226l-.161-.064c-.419-.161-.806-.322-1.192-.516-.386-.193-.773-.387-1.16-.58-.064-.032-.097-.064-.129-.129l-.064-.032c-.354-.386-.677-.837-.935-1.321-.29-.516-.451-1.031-.483-1.579,0-.29,.032-.58,.129-.838,.064-.258,.193-.483,.387-.709,.161-.193,.322-.354,.548-.516,.193-.129,.451-.258,.709-.354,.451-.161,.966-.226,1.45-.193,.516,.032,1.063,.161,1.515,.354,.483,.193,.837,.387,1.224,.612,.354,.226,.677,.451,1.063,.773l.419,.322c.128,.097,.257,.193,.386,.29h.064c.451-.032,.87,.097,1.257,.29,.354,.161,.677,.419,1.031,.708,.999,.806,2.835,.064,3.996-.418l.677-.29c.966-.387,1.836-.387,2.674-.161,.805,.193,1.579,.645,2.417,1.095l.097,.064c.225,.129,.418,.258,.644,.354l.064,.032,.29,.193c.097,.032,.193,.097,.29,.129l.097,.064h.064c.097,0,.193-.032,.29-.097,.064-.064,.129-.097,.161-.129-.483-.226-.967-.451-1.45-.645l-.902-.354c-.935-.386-2.642-1.063-3.125-1.546-.258-.258-.419-.548-.548-.838-.129-.322-.193-.676-.193-.999,0-.226,.032-.451,.064-.645,.064-.226,.129-.419,.193-.645,.097-.193,.193-.387,.322-.547,.097-.193,.226-.354,.387-.516,.226-.226,.483-.419,.773-.548,.258-.097,.58-.161,.87-.161,1.482,0,3.802,1.16,5.252,1.901l.773,.387c.806,.419,1.675,.838,2.481,1.128,.097,.032,.226,.064,.354,.128,.129,.032,.226,.097,.322,.161l.741,.032c.193,0,.354,.032,.516,.064,.129,.064,.258,.097,.419,.193,.064,0,.161-.032,.226-.064l.097-.032c.322-.097,.645-.226,.999-.29,.354-.097,.741-.128,1.096-.097,.354,.032,.612-.096,.935-.257l.097-.032c.064-.032,.129-.064,.161-.097,1.127-.451,2.191-.87,3.222-1.289,1.031-.451,2.095-.87,3.19-1.353,.741-.29,1.45-.58,2.062-.838,.709-.29,1.386-.58,2.062-.902l.741-.322c-.322-.097-.612-.258-.902-.451-.354-.258-.677-.612-.902-1.031-.097-.193-.161-.387-.226-.612-.032-.193-.064-.418-.032-.644s.097-.451,.193-.645,.226-.387,.387-.548c.419-.419,.934-.612,1.514-.709,.741-.129,1.547-.032,2.191,.097,2.288,.451,5.735,1.708,8.12,2.417l.354,.064c.29,.064,.516,.097,.709,.161,.226,.064,.451,.129,.708,.258,.193,.064,.354,.161,.483,.258l.387,.387h.032c.097,.129,.193,.226,.29,.29l.097,.032c.097,.032,.161,.064,.258,.064l.097,.032c2.9,.87,5.832,1.804,8.731,2.739l.064,.032c3.158,.999,6.315,2.03,9.505,2.996h.064c.741,.29,1.836,.258,2.674,.226l.226-.032c.515,0,1.063-.032,1.579,0h.032c.58,.032,1.675,.129,1.611,1.031,0,.193-.097,.354-.226,.483-.064,.064-.097,.097-.161,.129,.935,.29,1.901,.612,2.739,.967,.129,.064,.258,.128,.387,.193s.258,.161,.322,.258c.129,.129,.193,.258,.226,.419,.032,.129,.032,.29-.032,.451-.064,.129-.129,.226-.226,.322-.097,.064-.226,.129-.354,.193-.161,.032-.354,.032-.548,.032s-.386-.032-.547-.032c-.612-.064-1.225-.226-1.837-.387l-.902-.193c.064,.129,.097,.29,.097,.419,.032,.258-.064,.515-.29,.708-.612,.419-1.547-.257-2.126-.644l-.193-.161-.161-.097c-.967-.645-2.288-1.514-3.351-1.804l-17.56-4.415c-.097-.032-.226-.064-.322-.097l-.129-.032c-.451-.129-1.45-.451-1.643-.064-.387,.773-1.321,1.289-2.03,1.708l-.064,.032c-.161,.097-.322,.193-.483,.29-1.966,1.257-3.383,2.159-4.801,3.029-1.772,1.16-4.286,2.997-5.961,3.802-.097,.064-.161,.097-.258,.161-.064,.032-.161,.097-.226,.161-.064,.032-.129,.097-.161,.161-.064,.032-.129,.097-.161,.161-.097,.097-.161,.226-.258,.322s-.193,.193-.29,.29c-.129,.097-.225,.193-.354,.29s-.226,.161-.354,.258c-.29,.161-.548,.29-.806,.387-.29,.097-.548,.193-.87,.29h-.064c-.032,.193-.064,.387-.161,.58-.097,.226-.193,.419-.354,.612-.064,.097-.129,.193-.193,.258l-.097,.129,.226,.161c.612,.387,1.675,1.128,2.255,1.16,.773,.097,1.514,.161,2.288,.226,1.256,.129,2.578,.226,3.802,.516,1.74,.418,3.512,1.224,5.155,1.965l.451,.226c.161,.032,.29,.097,.451,.161,.129,.064,.29,.129,.419,.226,.161,.064,.322,.161,.483,.29,.161,.097,.29,.226,.419,.387h.032c.097,.129,.193,.29,.258,.483,.064,.161,.096,.354,.096,.516,0,.226-.032,.419-.128,.58-.064,.193-.193,.322-.322,.483l-.064,.032c.258,.129,.483,.258,.676,.451,.258,.226,.451,.548,.645,.935l.193,.097,17.206,8.474c.258,.064,1.031,.097,1.45,.097,.354,0,.708,.032,1.095,.032,.709,.032,2.062,.064,2.03,1.031,0,.29-.097,.516-.29,.677-.064,.097-.161,.161-.226,.193l.483,.226c.773,.386,1.644,.773,2.224,1.482,.161,.193,.258,.419,.258,.645,.032,.226-.064,.419-.258,.58-.387,.354-.935,.161-1.354,.032-.387-.129-.773-.29-1.127-.451l-.87-.354c.032,.161,.032,.322,.032,.483-.032,.258-.161,.483-.451,.612-.645,.322-1.385-.483-1.836-.967l-.322-.322c-.483-.451-1.16-1.16-1.676-1.418l-17.302-7.797c2.094,1.353,4.189,2.674,6.315,4.027,2.578,1.643,4.962,3.158,7.378,4.672,2.932,1.837,5.896,3.706,8.732,5.51l.032,.032c.097,.064,.322,.226,.483,.322,.161-.097,.29-.161,.451-.193,.193-.064,.387-.064,.58-.064,1.031,0,2.449,.741,3.738,1.675,1.289,.902,2.513,1.965,3.254,2.61l1.16,1.063c.387,.387,.773,.741,1.16,1.128,.967,.999,2.03,2.062,2.997,3.189,.967,1.128,1.901,2.32,2.642,3.48l.387,.58Zm-.419-.064l-.226-.354c-.741-1.128-1.675-2.32-2.642-3.416-.966-1.128-1.998-2.223-2.964-3.19-.386-.354-.741-.741-1.127-1.095-.419-.387-.806-.741-1.192-1.096-.708-.645-1.933-1.708-3.189-2.578-1.289-.902-2.61-1.611-3.577-1.611-.193,0-.354,0-.483,.032-.161,.032-.29,.097-.451,.193l-.064,.064-.097-.032c-.193-.097-.483-.322-.612-.387l-.032-.032c-2.964-1.901-5.832-3.706-8.7-5.51-2.513-1.579-5.026-3.158-7.378-4.64-2.449-1.547-4.897-3.125-7.346-4.704l.097-.29,.419,.032,.064,.032,18.075,8.12c.548,.29,1.257,.999,1.74,1.514l.322,.322c.387,.419,1.031,1.096,1.482,.87,.161-.064,.226-.193,.258-.354,.032-.193,0-.451-.097-.677l-.097-.322,.322,.129c.226,.097,.451,.193,.645,.29l.483,.193c.387,.161,.773,.322,1.128,.451h.032c.322,.097,.773,.258,1.031,.032,.097-.097,.161-.226,.129-.354,0-.129-.064-.29-.193-.419v-.032c-.516-.645-1.354-1.031-2.095-1.386l-.161-.064c-.226-.097-.451-.226-.677-.322l.032-.29c.193-.064,.354-.129,.451-.258,.129-.097,.193-.258,.193-.451,0-.645-1.128-.677-1.74-.709-.354,0-.708-.032-1.063-.032-.451,0-1.289-.032-1.579-.128-5.768-2.836-11.631-5.896-17.431-8.571l-.097-.097-.032-.064c-.161-.354-.354-.612-.58-.838-.226-.226-.483-.387-.838-.483l-.354-.129,.322-.161c.032-.032,.097-.064,.129-.097s.097-.032,.129-.064v-.032c.129-.097,.193-.226,.258-.354s.097-.29,.097-.451c0-.129-.032-.29-.064-.419-.064-.129-.129-.258-.226-.354v-.032c-.129-.129-.258-.226-.387-.322s-.29-.193-.419-.29c-.161-.064-.29-.129-.419-.193-.129-.064-.29-.096-.419-.161l-.483-.226c-1.611-.741-3.383-1.547-5.091-1.934-1.224-.29-2.513-.418-3.77-.515-.773-.064-1.515-.129-2.288-.226-.677-.064-1.772-.806-2.417-1.225l-.516-.354,.129-.161c.064-.064,.129-.161,.193-.226,.097-.097,.161-.161,.193-.257,.129-.161,.258-.354,.322-.548,.097-.193,.129-.387,.161-.58l.032-.129,.257-.064c.29-.064,.548-.161,.806-.258s.516-.226,.773-.387c.097-.064,.226-.129,.322-.226,.129-.064,.226-.161,.322-.257,.096-.097,.193-.193,.257-.29,.097-.097,.161-.193,.258-.29l.193-.193,.193-.193c.064-.064,.161-.129,.258-.193,.064-.032,.161-.097,.258-.129,1.74-1.128,3.512-2.255,5.252-3.351l5.51-3.479c.161-.129,.322-.193,.483-.29l.064-.064c.676-.387,1.546-.87,1.901-1.546,.29-.645,1.514-.29,2.03-.129l.129,.032,.29,.097,17.592,4.446c1.096,.29,2.417,1.192,3.448,1.836l.129,.097,.226,.161c.483,.354,1.321,.934,1.74,.645,.129-.129,.193-.258,.161-.419,0-.193-.097-.419-.226-.612l-.161-.322,.354,.097c.29,.064,.58,.129,.805,.193l.419,.097c.612,.129,1.225,.29,1.805,.354,.161,.032,.354,.032,.515,.032s.322,0,.451-.032c.097-.032,.161-.064,.226-.129,.064-.032,.129-.097,.161-.193s.032-.161,0-.258c0-.097-.064-.193-.129-.258s-.161-.129-.258-.193c-.129-.064-.226-.129-.354-.193-.902-.386-1.965-.708-2.932-1.031l-.129-.032v-.322c.129-.064,.29-.129,.386-.226,.064-.064,.129-.161,.129-.29,.064-.58-.837-.645-1.321-.677h-.032c-.516-.032-1.031-.032-1.514,0h-.258c-.87,.064-1.998,.097-2.803-.226h-.032c-3.158-.934-6.348-1.965-9.505-2.996h-.064c-2.899-.935-5.799-1.869-8.731-2.771h-.064c-.129-.032-.193-.032-.322-.097l-.097-.032c-.161-.097-.29-.226-.419-.354s-.226-.258-.354-.354-.258-.161-.419-.226c-.225-.097-.451-.193-.644-.226-.226-.064-.419-.097-.677-.161-2.771-.451-5.832-1.998-8.506-2.481-.612-.129-1.385-.226-2.062-.097-.516,.064-.999,.258-1.353,.612-.129,.129-.258,.29-.322,.451-.097,.161-.161,.354-.161,.548-.032,.193,0,.354,.032,.548,.032,.193,.097,.386,.193,.547,.193,.354,.483,.677,.805,.902,.354,.258,.773,.419,1.225,.516l.032,.322-.58,.258-.58,.226c-.676,.322-1.353,.612-2.062,.902-.741,.322-1.417,.58-2.062,.87-1.031,.419-2.094,.87-3.19,1.321-1.127,.451-2.191,.87-3.222,1.289-.032,.032-.097,.064-.129,.064l-.129,.064c-.354,.193-.645,.322-1.096,.29-.322-.032-.645,0-.999,.097-.322,.064-.644,.161-.966,.258l-.097,.032c-.097,.032-.226,.097-.322,.097h-.129v-.032c-.129-.064-.258-.129-.387-.161s-.258-.064-.419-.064l-.58-.032h-.226l-.064-.032c-.097-.064-.193-.129-.322-.161-.097-.064-.226-.097-.322-.129-.838-.29-1.708-.708-2.513-1.127l-.773-.387c-1.45-.741-3.705-1.901-5.123-1.901-.258,0-.515,.064-.741,.161-.258,.129-.483,.29-.677,.483-.129,.129-.258,.29-.354,.451-.097,.161-.193,.322-.29,.516-.064,.193-.129,.387-.161,.58s-.064,.387-.064,.58c0,.29,.064,.612,.161,.87,.129,.29,.258,.516,.483,.741,.451,.419,2.094,1.096,3.029,1.482l.87,.354c.58,.226,1.16,.483,1.708,.741l.226,.097-.161,.161c-.129,.097-.258,.226-.387,.322-.161,.097-.322,.161-.483,.161h-.032c-.032,0-.097,0-.129-.032l-.129-.064c-.097-.032-.226-.097-.322-.161-.097-.032-.226-.097-.322-.161l-.032-.032c-.226-.129-.451-.258-.644-.354l-.097-.064c-.806-.451-1.579-.87-2.352-1.095-.773-.193-1.547-.193-2.481,.193l-.645,.257c-1.225,.516-3.19,1.321-4.35,.354-.29-.258-.612-.483-.966-.644-.322-.193-.677-.29-1.096-.258-.064,0-.097,0-.161-.032-.032,0-.064-.032-.064-.032-.161-.097-.29-.193-.418-.29l-.419-.322c-.354-.322-.709-.548-1.063-.773-.322-.193-.709-.387-1.16-.58-.419-.193-.902-.29-1.386-.322s-.934,.032-1.353,.193c-.226,.064-.451,.161-.645,.29-.161,.129-.322,.29-.483,.451-.129,.193-.258,.419-.322,.612-.064,.226-.097,.483-.097,.741,0,.483,.193,.966,.419,1.417,.258,.451,.58,.902,.902,1.257l.032,.032,.064,.032,.032,.032c.387,.226,.741,.419,1.127,.58,.387,.193,.773,.354,1.192,.516l.677,.29-.032,.322c-.645,.064-1.289,.193-1.934,.29-.676,.129-1.353,.258-1.998,.419h-.064c-.709,.161-2.191,.515-2.545,1.063-.258,.419-1.095,.29-1.514,.258l-.161-.032c-.258-.032-.516-.064-.773-.064-2.449,.064-4.897,.064-7.346,.097h-1.643c-.419,0-.612,0-1.031-.29-.064-.064-.161-.129-.226-.193-.387-.29-.773-.547-1.16-.837l-.547-.387c-.902-.645-1.965-1.386-2.707-2.159l-.032-.032c-.58-.483-1.289-.935-2.03-1.16-.58-.161-1.225-.226-1.837,0-.193,.064-.386,.129-.547,.258-.161,.097-.322,.226-.451,.387-.129,.129-.258,.29-.322,.483-.097,.161-.161,.354-.193,.547-.064,.548,.032,1.063,.258,1.515,.29,.58,.741,1.063,1.224,1.482,.097,.064,.193,.161,.322,.226l.032,.032c.129,.097,.419,.29,.645,.516l.193,.161-.354,.129c-.516,.193-1.127,.419-1.546,.773-.387,.354-.516,.708-.483,1.063s.258,.741,.548,1.096l.064,.064c.322,.258,.612,.548,.902,.837l.064,.064c.935,.935,1.804,1.708,2.803,2.255,.967,.548,2.062,.87,3.416,.935h.032l3.641-.354h.516c.161,.032,.354,.064,.516,.097,.161,.064,.322,.129,.451,.226,.161,.097,.29,.193,.386,.29,.29,.258,.516,.419,.741,.58,.226,.129,.483,.258,.806,.387l.322,.129c.129,.032,.226,.097,.322,.129l.032,.032,5.735,4.221-13.694,11.438c-.161,.129-.29,.29-.451,.419s-.322,.258-.483,.354l-.064,.064c-.161,.129-.354,.29-.451,.483-.161,.29-.032,.58,.129,.902,.032,.097,.161,.29,.193,.387l-.773,1.16,3.834,4.446,.064,.064h.032c.129,.097,.258,.129,.387,.161,.161,.032,.29,.032,.451,.032h.097l.064,.064c.161,.258,.354,.516,.547,.773,.193,.226,.387,.483,.612,.709,.226,.29,.483,.58,.709,.837,.226,.29,.483,.548,.741,.838l.032,.032c.354,.29,.708,.483,1.031,.676,.354,.161,.709,.29,1.128,.387h.032c.097,.032,.29,.064,.387,.129v.032c.129,.129,.258,.226,.418,.322,.161,.097,.354,.193,.516,.29l.032,.032c.226,.097,.483,.226,.645,.387l15.176,14.95v.032c.097,.097,.161,.451,.226,.612v.097c.064,.226,.129,.516,.226,.677,.193,.322,.419,.644,.677,.966,.257,.322,.547,.645,.773,.902l.161,.161c.064,.064,.129,.097,.193,.129,.064,.064,.193,.129,.258,.129,.097,0,.193,0,.258-.032s.129-.097,.161-.161,.064-.129,.097-.226v-.387l.258,.193c.258,.226,.548,.451,.87,.677,.29,.193,.58,.386,.837,.547,.064,.064,.161,.129,.258,.161,.064,.064,.161,.097,.226,.129,.097,.032,.193,.064,.258,.064,.129,0,.226,0,.29-.064,.097-.032,.161-.097,.193-.193,0-.032,.032-.097,.032-.161s0-.129-.032-.193c0-.064-.032-.128-.064-.193-.258-.387-.516-.773-.838-1.16-.29-.354-.612-.709-.935-1.063l-.064-.064c-.064-.097-.193-.226-.29-.354l-.258-.29h.354c.096,.032,.161,0,.225,0,.032-.032,.097-.064,.161-.097,.097-.064,.129-.161,.161-.226,.064-.129,.064-.226,.032-.354,0-.064-.032-.129-.064-.193s-.064-.129-.129-.193c-.193-.29-.451-.548-.773-.773-.387-.29-.806-.483-1.192-.644l-.387-.097c-.097-.032-.226-.032-.354-.064h-.064c-.097,0-.226-.032-.322-.064l-.064-.032c-1.095-.902-2.159-1.998-3.157-3.029l-.129-.129c-.741-.741-1.482-1.546-2.255-2.352-.773-.838-1.482-1.611-2.191-2.384-.612-.677-1.225-1.321-1.805-1.965l-2.191-2.417c-.902-.999-1.772-1.966-2.707-2.964-.161-.161-.322-.354-.516-.516-.129-.161-.322-.354-.419-.548-.097-.161-.129-.451-.161-.645l-.064-.29c-.032-.193-.064-.354-.129-.548-.064-.161-.161-.322-.258-.483-.064-.129-.161-.258-.29-.387-.097-.129-.193-.258-.322-.387-.29-.322-.645-.612-.967-.902l-.193-.161c-.129-.129-.258-.258-.387-.419l-.097-.129,.129-.097c.676-.419,1.256-.806,1.836-1.16,1.933-1.256,3.866-2.513,5.8-3.737l2.707-1.74c.902-.58,1.804-1.16,2.674-1.708l.967-.58c.29-.193,.612-.387,.935-.58l.193-.129c.161-.097,.354-.226,.516-.322l.096-.032,.064,.032c.097,.064,.258,.129,.354,.193l.161,.097c.29,.161,.709,.386,.999,.129,.097-.097,.161-.226,.129-.322,0-.161-.097-.322-.193-.451l-.097-.161,.161-.064c.58-.226,1.482-.58,2.32-.806,.87-.257,1.675-.418,2.159-.257l.064,.032c.193,.225,.387,.418,.612,.612,.226,.161,.419,.354,.677,.483,.225,.161,.483,.322,.773,.419,.258,.097,.516,.193,.806,.258,.548,.129,1.063,.129,1.579,.032,.516-.097,.999-.29,1.45-.612,.258-.161,.483-.354,.676-.58,.193-.226,.387-.451,.58-.708,.161-.258,.29-.548,.419-.838s.226-.58,.29-.902c.129-.58,.193-1.16,.129-1.74-.032-.58-.161-1.16-.387-1.675l.258-.193,4.672,3.286,.097,.032,.612,.064,.548,.064c.58,.032,.999,.097,1.385,.193s.806,.226,1.321,.483h.032c2.513,.935,5.059,2.191,7.443,3.351l.483,.225c3.447,1.708,6.863,3.448,10.246,5.155l5.477,2.803c1.482,.741,2.932,1.482,4.35,2.191,3.254,1.644,6.541,3.287,9.892,4.898,3.318,1.579,6.702,3.093,10.085,4.479l.193,.097c2.449,.999,9.505,3.866,11.664,2.481,.322-.193,.612-.387,.902-.612,.29-.193,.612-.419,.902-.645,.322-.226,.645-.483,.967-.708Zm-23.263-48.653l-12.276-3.093-.387-.097c-.161-.032-.451-.129-.709-.193-.547,.741-1.385,1.256-2.191,1.708-.161,.097-.322,.193-.483,.29-1.708,1.096-3.448,2.191-5.188,3.287-1.837,1.192-3.706,2.352-5.542,3.544l-.064,.032c-.129,.064-.258,.129-.354,.225-.064,.032-.097,.064-.129,.129-.193,.258-.419,.516-.677,.741-.258,.258-.58,.483-.902,.677-.451,.29-.902,.483-1.385,.645-.032,.096-.064,.225-.129,.322,.387,.258,.773,.483,.967,.516,.612,.064,1.192,.097,1.772,.161,1.482,.129,3.029,.258,4.479,.58,1.998,.451,3.963,1.417,5.8,2.255,.322,.097,.677,.258,.967,.419,.451,.258,.87,.548,1.224,.935l.032,.032c.419,.483,.645,1.127,.645,1.74,0,.29-.032,.516-.129,.773,5.413-4.705,10.343-9.957,14.66-15.627Zm-39.889,26.324l-.064-.032-.032-.032c-.935-.419-1.225-.451-2.191-.548l-1.16-.097-.226-.032-.483-.161-2.352-1.676c-.032,.322-.097,.677-.161,1.031-.193,.773-.516,1.514-.935,2.191-.419,.645-.999,1.257-1.644,1.708-1.224,.838-2.738,1.128-4.188,.773-.741-.161-1.417-.419-2.062-.838-.451-.29-.838-.612-1.192-.966-.547,.032-1.45,.322-2.255,.612-.032,.418-.226,.805-.58,1.127-.805,.773-1.708,.548-2.545,.129-.064,.064-.128,.097-.225,.129-.612,.387-1.225,.806-1.869,1.192-1.74,1.095-3.479,2.223-5.22,3.318-1.675,1.063-3.318,2.159-4.994,3.222-.419,.258-.838,.516-1.224,.806l.322,.29,.032,.032c.322,.322,.58,.676,.806,1.063,.226,.322,.387,.677,.483,1.063,14.37-1.16,27.871-5.284,39.889-11.696-1.933-.934-3.931-1.869-5.864-2.61h-.064Zm57.095,16.497c-.193-.193-.193-.29-.419-.354-.322,.645,.676,.387-1.031,1.514-.548,.387-.548,.612-1.353,.064-.645-.612-6.96-5.316-7.25-5.445-.741,0-2.545,4.382-2.545,5.542,0,.838,.709,.999,1.096,1.257,2.288,1.417,12.018,5.349,13.952,4.672l2.384-1.579c-1.579-2.32-2.739-3.834-4.833-5.671Zm-49.91-21.491c-.483-.676-.258-.515-1.031-.708-.547-.161-3.383-1.644-4.027-2.03l-1.643-.708c-.29,1.127-.773,1.772-.773,2.964l7.572,3.737c.387,.129,.322,.161,.451-.226,.161-.451,.322-1.127,.483-1.482,.354-.902-.419-.645-1.031-1.547Zm35.958,16.465c-2.932-1.257-5.8-2.739-8.7-4.092-.418-.161-.515-.322-.708-.064-.387,1.644-1.74,3.512-.032,4.318,2.094,.966,4.06,2.674,6.412,2.674,.935,0,3.963-1.063,3.963-2.449,.129-.193-.451-.193-.935-.387Zm-83.064,3.931c.064,.097,.226,.29,.226,.193-.161-1.353,1.128-2.288,1.708-2.159-1.418-.451-1.998,.87-1.934,1.965Zm-1.546-3.189c-.29,.193,.354,.225,.87,.032l18.172-11.438-.451-.451-18.591,11.857Zm3.222,4.64c-.709-1.547,.612-2.61,2.094-1.579-1.772-2.578-3.802,.709-2.094,1.579Zm-1.74-7.121c-.837-.999-3.383-3.609-3.802-3.996-.29-.354-.097-.58,.516,0l3.737,3.706c.161,.161,.193,.193,.322,.29,.161,.097,.451,.161,.741-.097l15.047-9.57c-.032-.097-1.772-1.74-1.643-.966,.418,2.417-.58,1.063-.806,.741-.58-.838-1.289-2.578-2.352-3.416l-2.868-2.32-11.502,9.569c-.773,.548,3.125,3.737,3.802,4.672-1.063,0-3.866-3.802-4.64-3.931-.193,0-2.868,2.223-3.061,2.449,.451,1.611,3.577,4.736,4.027,5.155,.612-.226,1.869-1.16,2.61-1.644,.451-.29,.161-.257-.129-.644Zm27.484-12.759c-2.674,4.897,3.641,4.897,3.641,0,0-2.61-2.642-1.772-3.641,0Zm-4.092-.645l-5.735,3.609,.676,.515c.097-.161,5.542-1.901,5.961-1.998,0-.709,.741-2.771,1.321-3.319,0,0-.999,.419-2.223,1.192Zm22.876-12.727c.451-.097,.58-.097,.677-.516-1.643-.387-.645-.548-2.417-.161-1.804,.387-3.287,1.031-4.962,1.772-1.063,.419-.741,.806-1.675,.516l-5.735-2.417c.258,3.19-.58,5.381-1.836,6.927,2.352,1.579,5.96,3.061,8.441,4.318,.548,.097,.451-.451,.58-.838,.773-2.513,1.546-5.832,2.578-8.087,.226-.387,3.48-1.256,4.35-1.514Zm-16.561,11.277c-.064-.806-.999-.999-1.998-.87-.935,.161-1.934,1.385-2.449,2.674-.29,.805-.548,1.708-.548,2.255,0,.58,.483,.838,1.031,1.224,.193,.161,.516,.451,.483,0-.097-2.255,.709-5.22,3.48-5.284Zm4.897-17.496l8.925,4.285c-.547-4.35,2.255-5.155,2.997-5.509l-5.896-2.417c-.547-.322-2.159-1.096-2.771-1.096-3.222,0-3.448,2.964-3.254,4.736Zm-61.702-43.562c-.097-.064-.483,0-.29,.226,.258,.226,.645,.806,.967,.87,.129,.032,.29,.032,.419,.032v-.097c-.193-.064-.902-.806-1.096-1.031Zm2.191,.709c.838,.419-.387-.322,.258-.709,.161-.097,.387-.097,.548-.064,.419,.064,.097-.226-.161-.226-.709,0-1.031,.741-.645,.999Zm0,.193c-.161-.032-.29-.29-.483-.29-.387,0-.934-.741-1.289-.967-.097,0-.129,.032-.193,.097,.129,.161,.709,.709,.935,.902,.161,.161,.418,.387,.644,.387,.161,0,.29-.032,.387-.129Zm.29-1.546s-1.933-1.482-2.159-1.644c-.548-.193-1.031,.226-.709,.838,.032,.064,1.965,1.708,2.159,1.772-.258-.322,.387-.902,.709-.966Zm-.967,1.869c-.064,0,.097,.193,.129,.29,.258,.064,1.579,.032,1.74-.161-.548-.387-1.45-.097-1.869-.129Zm6.831,1.514c.419-.258,.322-.226,.387-.483,.064-.193,.387-.419,.418-.451h-3.737l1.933,1.74,.999-.806Zm-6.702,6.541c.193,.226,.709,.999,1.128,1.256,.097,.064,.161,.032,.226,.032l-1.225-1.514c-.032,.097-.097,.161-.129,.226Zm4.189-8.345c-.161-.193-.58-.548-.838-.806-.097-.064-1.095-.032-1.417-.064-.129,0-.097,.226,.193,.451,.161,.129,.547,.451,.676,.483,.226,.032,.516,.064,.741,.064,.322,0,.516,.064,.645-.129Zm7.056,.741c-.387-.257-.483-.386-.548-.612-.097-.258-.193-.29-.387-.097-.805,.773-1.16,.097-1.643,.064-.032,.129-.064,.258-.226,.258h-5.316l.354,.29,3.996,.032c1.256,.032,2.48,.032,3.77,.064Zm-8.958-1.869c-.032-.161-.29-.322-.418-.322-.161,0-.387-.032-.387,.129,0,.193,.516,.258,.805,.193Zm12.276-1.675l3.158,1.514c-.193-1.546,.773-1.836,1.031-1.965l-2.062-.838c-.193-.129-.773-.386-.967-.386-1.16,0-1.224,1.031-1.16,1.675Zm-.032-1.225c.064-.129,.258-.322,.386-.386,.226-.161,.322-.161,.161-.258l-1.417-.645c-.709,0-.934,.709-.548,.966,.354,.226,.645,.29,1.031,.451,.193,.064,.258,.161,.387-.129Zm-1.386-1.514c-.161-.064-.451-.193-.676-.161-.161,.032-.29,.193-.387,.354-.258,.548,.387,.806,.483,.773-.129-.258,.129-.935,.58-.967Zm6.251,2.513c.129,.032,.612-.129,.805-.193,.29-.064,0,.29,.612-.129l1.45-.935c.29-.193,.032-.225-.193-.29l-.773-.322c-.483-.161-.419-.161-.709-.032-.773,.354-.644,.419-1.385,.129-.29-.097-.258-.161-.677-.161-.258,0-.58,.226-.805,.387-.354,.193-1.096,.064-.999,.29,.064,.064,2.191,.87,2.481,1.063,.064,.032,.097,.193,.193,.193Zm2.384-2.803c.161-.129,.419-.226,.612-.193,.322,0,.58,.129,.837,.258,.193,.097,.58,.29,.806,.29,.419,0,.387-.161,.806-.387,.097-.064,.129-.064,.129-.226-.612-.129-1.869-.644-2.417-.515-.548,.096-1.644,.708-2.159,.934,.354,.483,1.031,.032,1.386-.161Zm-18.14,5.026c.193,.258,.645,.548,.902,.838,.097,.097,.193,.161,.418,.161h3.029c.064,0,.064-.032,.129-.064-.032-.064-.032-.032-.064-.064l-.999-.838c.193-.902,2.094,.419,2.449-.129l-1.096-.676c-.258-.161-1.482,.354-1.965,.418-.322,.032-.806-.322-1.063-.29-.419,.032-.902-.032-1.353,0,.097,.161,.516,.322,.516,.516,0,.226-.709,.129-.902,.129Zm-1.289,9.409c-.29-.354-1.192-1.289-1.321-1.418-.097-.129-.032-.193,.161,0l1.321,1.321c.064,.032,.064,.064,.129,.097s.161,.032,.258-.032l5.316-3.383c-.032-.032-.645-.612-.58-.354,.129,.87-.225,.387-.29,.258-.226-.29-.451-.902-.838-1.192l-.999-.805-4.06,3.383c-.29,.161,1.095,1.321,1.353,1.644-.387,0-1.385-1.354-1.643-1.386-.064,0-1.031,.773-1.096,.838,.161,.58,1.257,1.675,1.418,1.836,.226-.097,.677-.419,.934-.58,.161-.097,.064-.097-.064-.225Zm12.63-9.344c-.128,.032-.161,0-.193,.129,.225,0,.676,.29,.837,.29-.032-.161-.58-.322-.451-.419,1.063-.645,1.644-.29,2.224-.193,.064,.032,.483,.032,.387-.032-.967-.612-2.288-1.192-3.19-1.611-.226-.129-.226-.097-.226-.773-.29,0-.451,.322-.677,.322-.483,0-1.095-.645-1.74-.741-.097,0-.226,.097-.258,.161,1.063,.258,3.866,1.611,4.736,2.095,.483,.257-.838,.257-1.45,.773Zm-6.798-1.965c.258,.161,.29,.258,.161,.612-.064,.097-.064,.161,.032,.226,.258,.29,1.74,1.127,2.191,1.385,.193,.161,.29,.612,.516,.87q.064,.097,.226,.129c-.29-1.257,.612-2.094,1.675-2.03-.064-.193-2.578-1.354-2.932-1.45-.193-.064-.515-.29-1.095-.032-.064,0-.193-.064,0-.193,.161-.129,.226-.097,.29-.161,.064-.032,.064-.097,.064-.161-.322-.258-.709-.258-.741-.258s-.451-.419-.58-.29c-.064,.064-.29,.806-.258,.902,.097,.161,.226,.29,.451,.451Zm68.533,54.259l3.577,2.9c.419-.322-.064-.387,.773-.354,1.74,0,2.771-.161,4.64,0,1.192,.097,1.482,.451,2.707-.193-.064-.097-.032-.064-.161-.161-.516-.516-6.766-3.48-7.797-2.964,.097,.29,.29,.354,.87,.612,1.869,.837-.226,.87-.967,.87-2.32,0-3.029-1.514-3.834-1.933-.418-.097-.805-.161-1.224-.161,.483,.451,.838,.87,1.417,1.386Zm-4.575-9.441c-2.932,0-3.351,5.316-1.836,5.316,2.159,0,2.964-2.996,2.417-4.736-.097-.322-.29-.58-.58-.58Zm14.048,14.983c.451-.064,.322-.483,.483-.806,0,0,1.063-1.128,.161-1.128-.064,0-2.481,.483-2.352,1.289,.773,.193,1.289,.612,1.611,.645h.097Zm1.031-21.362l-10.343,6.573c-.515,.226-.547-.193-.966-.226-.322-.032-1.676,.354-1.933,.709,.354,.387,.386,1.676,.451,1.772,1.16-.29,1.321-.773,1.965-1.515,.419-.483,.838-.58,1.289-.902,3.093-1.998,6.187-3.898,9.247-5.896,.58-.354,.516-.677,.29-.516Zm-84.611-25.97c-.097-.097-.129,0-.161-.161-.29,0-.161,.064-.418,.129-.29,.097-.193-.097-.354-.097-.097,0-.064,0-.161,.064,.032,.161,.516,.677,.645,.773,.032-.258,.161-.612,.451-.709Zm70.627,31.641c.129,.097,.29,.547,.516,.612,.386,.032,1.772-.418,2.32-.547,.805-.161,0,.805,1.708-.354l4.124-2.642c.806-.612,.097-.645-.515-.87l-2.256-.902c-1.321-.483-1.16-.451-1.965-.064-2.223,1.031-1.836,1.128-3.995,.322-.773-.29-.677-.451-1.901-.451-.741,0-1.611,.708-2.223,1.095-1.095,.58-3.189,.193-2.835,.806,.097,.193,6.187,2.513,7.024,2.997Zm7.54-11.342l.161,.193,7.507,2.126c.677-.483,.806-1.16,.483-1.901l-6.058-1.965c-.741-.193-1.225-.258-1.546-.064-1.934-.451-2.481,1.16-.773,1.514,.193,.032,.097,0,.226,.097Zm-.29,3.931c.516-.29,1.192-.548,1.804-.548,.838,.032,1.579,.387,2.32,.741,.612,.29,1.708,.837,2.32,.837,1.16,0,1.128-.419,2.256-1.063,.29-.193,.354-.161,.387-.612-1.772-.387-5.316-1.901-6.896-1.547-1.546,.354-4.607,2.03-6.058,2.707,.967,1.321,2.932,.064,3.867-.515Zm1.192,20.878l.354,.258c2.384,1.74,1.837-.161,3.931-.161-1.031-.644-3.125-.386-4.286-.097Zm-78.714-43.755c-.226-.548,.226-.935,.741-.58-.612-.902-1.321,.258-.741,.58Zm27.065-5.22l.096,.042c-.021-.014-.043-.027-.064-.042h-.032Zm-19.59,12.695c-.097-.064-.161-.129-.258-.193,0,.032,0,.064-.032,.064-.032,.064-.064,.097-.097,.097-.032,.032-.097,.032-.129,.032-.064,0-.128-.032-.161-.064-.032,0-.064-.032-.064-.064-.032,0-.064-.032-.064-.064-.097-.097-.193-.193-.29-.322-.097-.097-.161-.226-.258-.354-.032-.064-.064-.161-.097-.258v-.032c0-.064-.032-.161-.032-.193l-5.349-5.252c-.064-.064-.129-.097-.193-.129h-.032l-.193-.097c-.032-.064-.097-.097-.161-.161h-.097c-.161-.032-.29-.097-.419-.161s-.226-.129-.354-.226l-.032-.032c-.097-.096-.193-.193-.29-.29-.064-.097-.161-.226-.258-.322-.064-.064-.129-.161-.193-.258-.064-.064-.129-.161-.193-.226-.064,0-.097,0-.161-.032-.032,0-.097-.032-.161-.064-.032,0-.032-.032-.064-.032l-1.417-1.643,.29-.419c0-.032-.032-.064-.032-.097-.064-.129-.128-.258-.064-.419,.064-.097,.129-.161,.226-.193v-.032c.064-.032,.129-.064,.161-.129,.064-.032,.097-.097,.161-.129l4.736-3.963-1.901-1.386c-.032-.032-.064-.032-.129-.064l-.097-.032c-.129-.032-.226-.097-.322-.129-.064-.064-.161-.129-.257-.226-.032-.032-.064-.064-.129-.097-.032-.032-.097-.032-.129-.064-.064,0-.097-.032-.161-.032h-.161c-.354,.032-.999,.129-1.321,.129-.483-.032-.902-.161-1.256-.354-.354-.193-.645-.483-.999-.806l-.032-.032-.29-.29q-.032,0-.032-.032c-.129-.129-.226-.29-.226-.451-.032-.161,.032-.322,.193-.451,.161-.128,.354-.225,.548-.29-.064-.032-.129-.064-.161-.097-.064-.032-.097-.064-.129-.097-.193-.161-.354-.354-.451-.548s-.129-.387-.097-.612c0-.064,.032-.161,.064-.226s.064-.129,.129-.193,.129-.129,.193-.161,.129-.064,.226-.097c.226-.097,.483-.064,.709,0,.29,.097,.548,.258,.741,.419l.032,.032c.257,.258,.612,.516,.934,.741l.193,.129c.129,.097,.258,.193,.419,.322l.064,.064c.129,.064,.161,.064,.29,.064h.58c.87,0,1.74,0,2.61-.032,.097,0,.193,0,.257,.032h.064c.129,0,.387,.032,.419-.032,.161-.226,.741-.354,.999-.419,.226-.064,.483-.129,.709-.161,.161-.032,.322-.064,.483-.064l-.032-.032c-.161-.064-.29-.129-.419-.193-.161-.064-.29-.129-.419-.193q-.032-.032-.064-.032v-.032c-.129-.129-.258-.29-.354-.451-.097-.193-.161-.387-.161-.58,0-.097,.032-.193,.064-.29,0-.097,.064-.161,.129-.258,.032-.064,.129-.129,.193-.161,.064-.064,.161-.097,.258-.129,.161-.064,.322-.064,.516-.064,.161,0,.354,.032,.515,.129,.161,.064,.29,.129,.419,.193,.129,.097,.258,.161,.387,.29l.161,.096c.032,.032,.097,.064,.129,.097h.032c.161,0,.29,.032,.419,.129,.129,.064,.258,.129,.387,.226,.354,.29,.999,.032,1.385-.129l.258-.097c.322-.129,.645-.129,.935-.064s.548,.226,.837,.387l.032,.032c.097,.032,.161,.064,.258,.129,.032,.032,.064,.032,.097,.064,.032,0,.097,.032,.129,.032l.032,.032c.032,0,.064,0,.129-.032,0-.032,.032-.032,.032-.064-.161-.064-.322-.129-.516-.193l-.29-.129c-.354-.161-.934-.387-1.127-.547l-.193-.29c-.032-.129-.064-.258-.064-.387,0-.064,.032-.129,.032-.193,.032-.097,.032-.161,.064-.226s.064-.161,.097-.226l.161-.161c.064-.064,.161-.161,.258-.193s.193-.064,.322-.064c.515,0,1.321,.419,1.836,.677l.29,.129c.29,.161,.58,.29,.87,.387,.032,.032,.064,.032,.129,.064,.032,0,.064,.032,.097,.064h.258c.064,0,.129,0,.193,.032,.032,0,.097,.032,.161,.064,0,0,.032-.032,.064-.032h.032c.129-.032,.226-.097,.354-.097,.129-.032,.258-.064,.387-.032,.129,0,.226-.032,.322-.097l.032-.032c.032,0,.064,0,.064-.032,.386-.129,.773-.29,1.127-.451,.387-.161,.741-.29,1.128-.451,.257-.129,.515-.226,.741-.322s.483-.193,.709-.29l.29-.129c-.129-.032-.226-.097-.322-.161-.129-.097-.258-.226-.322-.354-.032-.064-.064-.161-.097-.226v-.226c0-.064,.032-.161,.064-.226s.064-.129,.129-.193c.161-.161,.354-.226,.548-.258,.258-.032,.548,0,.773,.032,.805,.161,2.03,.612,2.835,.87h.161c.097,.032,.161,.032,.226,.064,.097,.032,.161,.064,.258,.097,.064,.032,.129,.064,.161,.097,.064,.032,.097,.064,.161,.129l.097,.097h.032c.032,.032,.064,.032,.097,.032l.032,.032c1.031,.29,2.062,.612,3.093,.966,1.127,.354,2.223,.709,3.351,1.031l.032,.032c.257,.097,.644,.064,.934,.064h.097c.161,0,.354-.032,.548,0,.226,0,.612,.032,.58,.354,0,.064-.032,.128-.097,.161,0,.032-.032,.032-.032,.064,.322,.097,.644,.193,.966,.322,.032,.032,.064,.064,.129,.064,.032,.032,.097,.064,.129,.097,.032,.064,.064,.097,.064,.161v.161l-.097,.097c-.032,.032-.064,.064-.129,.064-.064,.032-.129,.032-.193,.032s-.129,0-.193-.032c-.193,0-.418-.064-.644-.129l-.322-.064c.032,.064,.032,.097,.032,.161,.032,.097,0,.161-.097,.226-.193,.161-.548-.064-.741-.226l-.064-.032-.064-.032c-.354-.226-.805-.548-1.192-.645l-6.187-1.579c-.032,0-.064,0-.097-.032h-.064c-.161-.032-.516-.161-.58-.032-.129,.29-.451,.451-.708,.612h-.032c-.032,.032-.097,.064-.161,.129-.709,.419-1.192,.741-1.676,1.063-.644,.387-1.514,1.063-2.126,1.321-.032,.032-.064,.032-.064,.064-.032,.032-.064,.032-.097,.064-.032,0-.032,.032-.064,.032,0,.032-.032,.064-.064,.064,0,.064-.032,.097-.064,.129s-.064,.064-.129,.097l-.097,.097c-.064,.032-.097,.064-.129,.097-.097,.064-.193,.097-.29,.129l-.29,.097-.032,.032c-.032,.064-.032,.129-.064,.193-.032,.064-.064,.129-.129,.226-.032,.032-.032,.064-.064,.064l-.032,.064,.064,.032c.226,.161,.612,.419,.805,.419,.258,.032,.548,.064,.806,.097,.451,.032,.902,.064,1.354,.161,.612,.161,1.224,.451,1.804,.709l.161,.064c.064,.032,.097,.032,.161,.064s.097,.064,.161,.064c.032,.032,.097,.064,.161,.129,.064,.032,.097,.064,.161,.128,.032,.032,.064,.097,.097,.161,0,.064,.032,.129,.032,.193s-.032,.129-.064,.193c0,.064-.064,.129-.097,.161l-.032,.032c.097,.032,.161,.097,.226,.161,.096,.064,.161,.193,.225,.322h.032l.064,.032,6.058,2.997c.097,.032,.354,.032,.516,.032h.387c.226,0,.709,.032,.709,.354,0,.129-.032,.193-.097,.258-.032,.032-.064,.032-.097,.064l.193,.096c.257,.129,.58,.258,.773,.516,.032,.064,.097,.129,.097,.226,0,.064-.032,.129-.097,.193-.129,.129-.322,.064-.483,0-.129-.032-.257-.097-.386-.161l-.322-.097c.032,.032,.032,.097,0,.161,0,.097-.032,.161-.129,.226-.226,.097-.516-.193-.677-.354l-.097-.097c-.161-.193-.419-.419-.58-.516l-6.122-2.738c.741,.451,1.482,.934,2.223,1.417,.934,.58,1.772,1.096,2.61,1.643,1.031,.645,2.094,1.289,3.093,1.934,.032,.032,.129,.097,.161,.129,.064-.032,.129-.064,.161-.064,.064-.032,.129-.032,.226-.032,.354,0,.838,.258,1.321,.58,.451,.322,.87,.709,1.127,.935,.129,.129,.29,.258,.419,.387s.258,.258,.419,.387c.322,.354,.709,.741,1.031,1.127,.354,.387,.676,.806,.934,1.225l.129,.193c-.129,.129-.258,.226-.419,.322-.097,.097-.193,.161-.29,.226-.129,.097-.226,.161-.322,.225-.838,.516-3.351-.515-4.253-.87l-.064-.032c-1.192-.483-2.384-1.031-3.544-1.579-1.16-.547-2.32-1.127-3.48-1.708-.548-.29-1.031-.548-1.546-.773l-1.934-.999c-1.192-.612-2.417-1.225-3.608-1.805l-.161-.097c-.838-.418-1.74-.837-2.61-1.16l-.032-.032c-.193-.064-.322-.129-.451-.161s-.258-.032-.451-.064h-.193l-.226-.032h-.032l-.032-.032h-.032l-1.514-1.063c.064,.161,.097,.29,.097,.451,.032,.226,0,.451-.032,.645-.032,.129-.064,.226-.129,.354-.032,.097-.097,.193-.161,.29s-.129,.193-.226,.29l-.226,.226c-.193,.097-.386,.193-.58,.225s-.387,.032-.58-.032c-.129,0-.226-.032-.322-.096-.097-.032-.193-.064-.29-.129s-.161-.129-.258-.193c-.064-.064-.129-.129-.193-.226-.161-.032-.419,.032-.677,.097-.29,.097-.547,.193-.741,.258,0,.064,.032,.097,.032,.161,.032,.064,0,.128-.064,.193-.161,.161-.354,.064-.483-.032l-.064-.032c-.032,0-.064-.032-.097-.032-.064,.032-.097,.064-.161,.097l-.064,.032c-.097,.064-.226,.129-.322,.193l-.354,.226c-.322,.193-.612,.419-.934,.612l-.935,.58c-.709,.451-1.385,.902-2.062,1.321l-.58,.387c.032,.032,.032,.064,.064,.097l.064,.032c.129,.129,.258,.226,.354,.322,.032,.064,.097,.097,.129,.161,.032,.032,.064,.097,.097,.161s.064,.097,.097,.193c.032,.064,.064,.129,.064,.193l.032,.097c0,.064,0,.161,.032,.193,.032,.064,.097,.129,.129,.161l.193,.193c.29,.354,.612,.708,.934,1.063l.773,.838c.226,.226,.419,.451,.645,.677,.258,.29,.516,.58,.773,.87,.258,.258,.516,.548,.806,.806l.032,.064c.354,.354,.709,.741,1.096,1.031,.032,.032,.064,.032,.097,.032,.064,0,.097,0,.161,.032,.032,0,.097,0,.129,.032,.161,.064,.322,.129,.451,.226s.226,.193,.322,.29c0,.032,.032,.064,.032,.097,.032,.032,.032,.064,.032,.097,.032,.064,.032,.129,0,.193-.032,.032-.064,.097-.097,.129s-.064,.032-.097,.032l.064,.097c.129,.097,.226,.226,.322,.387,.129,.129,.226,.258,.322,.419,0,0,0,.032,.032,.064v.226c-.032,.032-.064,.097-.129,.129-.032,0-.097,.032-.161,.032-.032,0-.097-.032-.129-.032-.032-.032-.064-.032-.097-.064-.032,0-.064-.032-.097-.064l-.29-.193Zm-.258-.322c.097,.064,.193,.161,.322,.226,.097,.064,.193,.161,.29,.193,.032,.032,.064,.064,.097,.064,.032,.032,.064,.032,.064,.032,.032,.032,.064,.032,.097,.032s.064,0,.097-.032c.032,0,.064-.032,.064-.064,.032,0,.032-.032,.032-.064,0,0,0-.032-.032-.064v-.064l-.29-.387c-.129-.129-.226-.258-.354-.387v-.032c-.032-.032-.097-.064-.129-.129l-.064-.097h.193s.032,0,.064-.032,.032-.032,.064-.097v-.097c0-.032-.032-.064-.032-.064,0-.032-.032-.064-.032-.097-.064-.097-.161-.193-.29-.258-.129-.097-.29-.161-.419-.226-.032,0-.097-.032-.128-.032-.032,0-.097,0-.129-.032h-.129l-.032-.032c-.387-.322-.773-.708-1.096-1.063l-.064-.032c-.258-.29-.516-.548-.773-.838-.29-.29-.547-.58-.805-.837-.193-.226-.419-.483-.612-.709l-.773-.838c-.322-.354-.645-.709-.966-1.031-.064-.064-.097-.128-.161-.193s-.129-.129-.161-.193-.064-.161-.064-.226v-.129c-.032-.064-.032-.097-.064-.161l-.097-.193c-.032-.032-.064-.097-.097-.129s-.064-.097-.097-.129c-.129-.097-.226-.226-.354-.322l-.064-.064c-.064-.032-.097-.097-.129-.129l-.032-.064,.032-.032c.226-.129,.451-.29,.645-.419,.677-.418,1.385-.87,2.062-1.321l.935-.58c.322-.226,.645-.419,.966-.612l.322-.193c.097-.097,.226-.161,.322-.226l.064-.032c.064-.032,.129-.096,.193-.128h.064c.032,.032,.064,.064,.129,.064l.032,.032c.129,.064,.258,.161,.354,.064,.064-.032,.064-.096,.064-.128s-.032-.097-.064-.161l-.064-.032,.064-.032c.226-.097,.516-.193,.837-.29,.29-.097,.58-.129,.741-.097l.032,.032c.064,.064,.129,.129,.226,.193,.064,.064,.129,.129,.226,.193s.193,.097,.258,.129c.097,.032,.193,.064,.322,.097,.161,.032,.354,.032,.548,0,.161-.032,.354-.097,.515-.193,.064-.064,.161-.129,.226-.226,.064-.064,.129-.161,.193-.226,.064-.097,.129-.193,.161-.322l.097-.29c.064-.226,.064-.419,.064-.612-.032-.226-.064-.418-.161-.612l.097-.064,1.643,1.16,.032,.032h.226l.193,.032c.193,0,.354,.032,.483,.064s.29,.064,.483,.161c.87,.322,1.772,.773,2.61,1.192l.193,.064c1.192,.612,2.417,1.225,3.608,1.837l1.934,.966c.515,.29,1.031,.548,1.514,.773,1.16,.58,2.32,1.16,3.512,1.74,1.16,.548,2.352,1.096,3.544,1.579l.064,.032c.87,.354,3.351,1.353,4.125,.87,.097-.064,.193-.129,.322-.193,.096-.097,.193-.161,.29-.258,.129-.064,.226-.161,.354-.226l-.097-.129c-.258-.419-.58-.806-.902-1.225-.354-.387-.709-.773-1.063-1.095-.129-.161-.258-.29-.387-.419-.161-.129-.29-.258-.419-.387-.258-.193-.676-.58-1.127-.902-.451-.29-.935-.547-1.257-.547h-.193c-.032,.032-.097,.032-.161,.064v.032l-.032-.032c-.064,0-.193-.097-.225-.129-1.063-.677-2.062-1.321-3.093-1.934-.87-.58-1.772-1.127-2.578-1.643-.87-.548-1.74-1.095-2.61-1.675l.032-.097,.161,.032h.032l6.347,2.867c.193,.097,.451,.354,.645,.516l.097,.129c.129,.129,.354,.387,.516,.29,.064,0,.097-.064,.097-.129s0-.129-.032-.226l-.032-.097,.097,.032c.097,.032,.161,.064,.226,.097l.193,.064c.128,.064,.257,.129,.386,.161s.29,.097,.387,.032c.032-.064,.032-.097,.032-.129,0-.064-.032-.129-.064-.161-.193-.226-.483-.354-.741-.483l-.064-.032c-.064-.032-.161-.064-.226-.128v-.097c.064,0,.129-.032,.161-.064,.064-.064,.064-.097,.064-.193,.032-.226-.387-.226-.612-.226-.129,0-.226-.032-.354-.032-.161,0-.451,0-.548-.032h-.032c-2.03-.999-4.092-2.094-6.122-3.029l-.032-.032h-.032c-.064-.129-.128-.226-.193-.322-.064-.064-.161-.129-.29-.161l-.129-.032,.097-.064q.032-.032,.064-.032l.032-.032c.064-.032,.097-.097,.097-.129,.032-.064,.032-.097,.032-.161s0-.097-.032-.161c0-.032-.032-.097-.064-.129s-.097-.064-.129-.129c-.064-.032-.097-.064-.161-.096-.032,0-.097-.032-.129-.064-.064,0-.129-.032-.161-.064l-.161-.064c-.58-.258-1.192-.548-1.804-.677-.419-.097-.902-.161-1.321-.193-.29-.032-.548-.032-.806-.064-.257-.032-.644-.29-.87-.451l-.161-.129,.032-.032c.032-.032,.064-.064,.064-.097l.064-.064c.064-.064,.097-.129,.129-.225,.032-.064,.032-.129,.064-.193v-.032l.097-.032,.29-.097c.064-.032,.161-.064,.257-.129,.032-.032,.064-.064,.129-.097,.032,0,.064-.032,.097-.064l.097-.097c.032-.032,.064-.097,.097-.129,0-.032,.032-.032,.064-.064,0-.032,.032-.032,.064-.064s.064-.032,.097-.064c.032,0,.032-.032,.064-.064,.645-.387,1.257-.773,1.869-1.16l1.933-1.224c.064-.032,.129-.097,.161-.129h.032c.258-.129,.547-.322,.676-.548,.097-.226,.548-.097,.709-.032h.064c.032,0,.064,.032,.097,.032l6.187,1.546c.387,.129,.87,.451,1.224,.677l.064,.032,.064,.032c.161,.129,.483,.354,.612,.258,.064-.064,.064-.097,.064-.161s-.032-.129-.097-.226l-.032-.097,.097,.032c.097,0,.226,.032,.29,.064l.161,.032c.193,.064,.418,.097,.644,.129h.322c.032,0,.064-.032,.097-.032,0-.032,.032-.064,.032-.097,.032-.032,.032-.064,0-.064,0-.032,0-.064-.032-.097l-.097-.097c-.032,0-.064-.032-.129-.032-.322-.161-.676-.258-1.031-.387h-.032v-.097c.032-.032,.097-.064,.129-.097,.032-.032,.032-.064,.064-.096,0-.226-.322-.226-.483-.258h-.645c-.29,.032-.677,.032-.966-.064h-.032c-1.096-.354-2.224-.709-3.351-1.063-1.031-.322-2.062-.645-3.093-.966h-.032c-.032-.032-.064-.032-.097-.032l-.032-.032c-.064-.032-.097-.064-.161-.129-.032-.032-.064-.064-.129-.097-.032-.032-.097-.064-.129-.097-.097-.032-.161-.064-.226-.097-.097,0-.161-.032-.258-.032-.966-.161-2.03-.709-2.996-.87-.226-.064-.483-.097-.741-.032-.161,0-.322,.064-.451,.193-.064,.064-.097,.097-.129,.161s-.032,.129-.064,.193c0,.064,0,.129,.032,.193,0,.064,.032,.129,.064,.193,.064,.129,.161,.258,.29,.322,.129,.097,.258,.161,.419,.193l.032,.097-.226,.097-.193,.096c-.258,.097-.483,.193-.741,.29-.258,.129-.483,.226-.708,.322-.387,.161-.741,.29-1.128,.451-.419,.161-.773,.322-1.127,.483h-.064l-.032,.032c-.129,.064-.226,.129-.387,.097-.129,0-.226,0-.354,.032s-.226,.064-.354,.097h-.032c-.032,.032-.064,.032-.097,.064q-.032,0-.064-.032c-.032-.032-.097-.032-.129-.064h-.161l-.193-.032h-.097c-.032-.032-.064-.032-.129-.064-.032,0-.064-.032-.097-.032-.29-.097-.612-.258-.902-.419l-.258-.129c-.516-.258-1.321-.645-1.804-.645-.097,0-.193,0-.258,.032-.097,.032-.193,.097-.258,.161-.032,.064-.064,.129-.129,.161l-.097,.193c0,.064-.032,.129-.032,.193-.032,.064-.032,.129-.032,.193,0,.129,0,.226,.064,.322,.032,.097,.097,.193,.161,.258,.161,.161,.741,.386,1.063,.515l.322,.129c.193,.097,.387,.193,.58,.258l.097,.064-.064,.032c-.032,.032-.097,.097-.161,.129-.032,.032-.097,.064-.161,.064l-.032-.032h-.064c-.032-.032-.064-.032-.097-.064-.064-.032-.097-.032-.129-.064-.097-.064-.161-.097-.226-.129l-.032-.032c-.29-.161-.547-.322-.837-.387-.258-.064-.548-.064-.87,.064l-.226,.097c-.451,.193-1.128,.451-1.546,.129-.097-.097-.226-.161-.322-.226-.129-.064-.258-.097-.387-.097h-.064c-.032,0-.032-.032-.032-.032-.064-.032-.097-.064-.129-.097l-.161-.129c-.129-.096-.258-.161-.387-.257-.097-.064-.226-.129-.387-.193-.161-.064-.322-.097-.515-.129-.161,0-.322,.032-.451,.064-.097,.032-.161,.064-.226,.129-.064,.032-.129,.097-.193,.161-.032,.064-.064,.129-.097,.193-.032,.097-.032,.161-.032,.258,0,.193,.064,.354,.129,.516,.097,.161,.226,.322,.322,.451h.032l.032,.032,.387,.193c.129,.064,.258,.129,.419,.193l.257,.097-.032,.097c-.225,.032-.451,.064-.676,.129-.258,.032-.483,.064-.709,.129h-.032c-.226,.064-.773,.193-.902,.387-.064,.129-.354,.097-.516,.064h-2.932c-.193,.032-.387,.032-.58,.032-.129,0-.193,0-.354-.129-.032,0-.064-.032-.097-.064l-.387-.29-.193-.129c-.322-.226-.709-.483-.966-.773-.193-.161-.451-.322-.709-.419-.226-.064-.451-.064-.645,0-.097,.032-.161,.064-.193,.097-.064,.032-.129,.064-.161,.129-.064,.064-.097,.129-.129,.161-.032,.064-.032,.161-.064,.226-.032,.193,0,.354,.097,.516,.097,.193,.258,.387,.419,.516,.032,.032,.064,.064,.129,.097,.032,.032,.161,.097,.226,.193l.064,.064-.097,.032c-.193,.064-.419,.161-.58,.257v.032c-.129,.097-.161,.226-.161,.354,.032,.129,.097,.258,.193,.387q.032,0,.032,.032c.097,.064,.226,.193,.322,.29l.032,.032c.322,.322,.612,.58,.967,.773,.354,.193,.741,.322,1.224,.322l1.289-.097c.032-.032,.097-.032,.161,0,.064,0,.129,0,.193,.032,.064,0,.097,.032,.161,.064s.097,.064,.129,.097c.096,.097,.193,.161,.257,.226,.097,.032,.193,.064,.29,.129l.129,.032c.032,.032,.064,.032,.097,.064h.032l1.998,1.482-4.833,4.06c-.032,.032-.097,.064-.161,.129-.032,.032-.097,.097-.161,.129-.064,.064-.161,.129-.193,.193-.032,.097,0,.193,.064,.322,0,.032,.064,.097,.064,.129l-.258,.419,1.354,1.546v.032h.032c.032,.032,.097,.064,.129,.064h.193v.032c.064,.097,.129,.161,.226,.258,.064,.097,.129,.193,.193,.258,.097,.097,.161,.193,.258,.29s.161,.193,.258,.29c0,0,0,.032,.032,.032,.128,.096,.225,.161,.354,.225s.258,.097,.387,.129h.032c.032,.032,.097,.032,.129,.064l.129,.129,.193,.097c.097,.032,.161,.097,.226,.129l5.349,5.284h.032c0,.032,.032,.161,.064,.226v.032c0,.097,.032,.193,.064,.258,.064,.097,.161,.193,.258,.322s.193,.226,.258,.322l.064,.064c.032,0,.032,.032,.064,.032,.032,.032,.064,.032,.097,.032,.032,.032,.064,0,.097,0l.032-.032c.032-.032,.032-.064,.032-.097v-.129l.097,.064Zm-7.797-7.668c.032,.032,.097,.097,.097,.064-.064-.483,.387-.806,.58-.773-.483-.161-.709,.322-.677,.709Zm37.183,27.258c-2.159-.838-3.383,1.225-1.708,2.835,.418,.258,.87,.483,1.224,.709,0-1.096-.097-2.835,1.321-3.158,0-.29-.483-.258-.838-.387Zm80.776,44.851c.516-.354,.806-.515,1.16-.87-.161-.451-5.349-5.349-7.088-5.349-.451,0-.967,.419-1.16,.709,.548,.805,5.929,4.543,7.088,5.509Zm-100.109-3.061l.226,.193c-30.835-.806-57.126-14.596-75.17-35.217,.226,0,.483-.096,.709-.322,.193-.193,.322-.419,.354-.645,.483-.161,.999-.354,1.321-.387,.226,.226,.451,.419,.708,.58,.354,.258,.773,.419,1.192,.516,.87,.193,1.772,.032,2.481-.483,.387-.258,.709-.612,.967-.999s.451-.838,.547-1.289c.064-.193,.097-.419,.097-.612l1.418,.999,.258,.097h.129c.226,.032,.483,.064,.709,.064,.547,.064,.741,.097,1.289,.322v.032h.064l.032,.032c1.514,.548,3.093,1.354,4.575,2.062,2.255,1.096,4.479,2.256,6.702,3.383,1.708,.87,3.416,1.74,5.123,2.61,3.867,1.933,7.83,3.899,11.857,5.542,1.417,.58,2.964,1.192,4.479,1.546,.999,.258,2.384,.483,3.319-.097,.387-.226,.741-.515,1.095-.773l.387-.29,.838-.612-.548-.902c-.935-1.417-2.255-2.835-3.447-4.027-.451-.451-.902-.902-1.386-1.321-1.063-.935-3.125-2.707-4.575-2.707-.193,0-.354,0-.548,.064l-.032-.032c-.451-.29-.902-.58-1.385-.87,.193,0,.386,0,.58-.097s.322-.193,.419-.354c.645,.29,1.418,.58,1.966,.032,.515-.451,.483-1.16,.064-1.643-.322-.387-.708-.645-1.16-.87,.032-.064,.032-.161,.032-.226,0-.677-.516-1.096-1.16-1.225-.258-.032-.516-.064-.773-.064h-.451c-.226-.032-.548-.032-.806-.064l-9.956-4.898c-.097-.193-.226-.354-.354-.483,.032-.161,.064-.322,.064-.451,0-.387-.129-.773-.387-1.063-.226-.226-.451-.418-.741-.547-.161-.097-.354-.193-.58-.258-1.063-.483-2.223-1.063-3.416-1.321-.838-.193-1.772-.258-2.642-.354-.354-.032-.677-.064-1.031-.097-.129-.032-.354-.161-.58-.29l.097-.193c.258-.097,.516-.225,.805-.386,.193-.097,.354-.226,.516-.387,.161-.129,.29-.29,.419-.451,0-.032,.032-.032,.064-.064,.064-.064,.129-.097,.226-.129v-.032c1.096-.709,2.191-1.385,3.287-2.094,1.031-.645,2.062-1.289,3.061-1.933,.097-.064,.193-.097,.29-.161,.483-.29,.967-.58,1.289-1.031,.161,.032,.322,.097,.419,.129s.161,.032,.226,.064l10.375,2.61c.548,.161,1.354,.709,1.869,1.031,.612,.419,1.385,.999,2.126,.451,.161-.097,.258-.226,.322-.354,.322,.064,.645,.129,.934,.161,.29,.032,.612,.064,.902-.032,.354-.097,.677-.354,.806-.709,.161-.419,.064-.87-.226-1.192-.193-.193-.419-.322-.677-.451-.29-.129-.645-.258-.967-.354,0-.58-.386-.999-.934-1.128-.226-.064-.451-.097-.677-.097-.354-.032-.708-.032-1.063,0-.387,0-1.031,.032-1.386-.097h-.064c-1.901-.58-3.77-1.16-5.639-1.772-1.708-.548-3.447-1.128-5.188-1.644h-.032l-.064-.032q-.032,0-.032-.032c-.226-.225-.451-.418-.773-.547s-.612-.193-.967-.258c-.064-.032-.129-.032-.193-.032l-4.736-1.45h-.064c-.935-.193-2.062-.161-2.803,.548-.29,.29-.483,.709-.516,1.128-.064,.387,.032,.773,.226,1.127,.064,.161,.161,.29,.258,.419-.58,.258-1.16,.483-1.74,.741-1.257,.516-2.513,1.031-3.77,1.546-.064,.032-.129,.032-.161,.064-.064,.032-.161,.097-.226,.097-.515-.032-.966,.097-1.45,.258-.161-.064-.354-.097-.548-.129h-.29c-.129-.064-.225-.097-.386-.161-.516-.161-1.096-.483-1.611-.741-.967-.483-2.513-1.289-3.608-1.289-.548,0-1.063,.226-1.45,.612-.258,.258-.451,.548-.58,.87-.129,.322-.193,.645-.193,.999,0,.322,.064,.645,.193,.935-.097,.032-.193,.064-.29,.129-.097,.032-.193,.064-.29,.096-.322,.129-1.482,.645-1.772,.387-.483-.387-.966-.676-1.579-.741l-.29-.193c-.516-.419-.902-.677-1.514-.935-.709-.29-1.515-.354-2.255-.097-.387,.161-.773,.387-1.031,.741-.322,.387-.451,.87-.451,1.353,.032,.806,.483,1.547,.999,2.127l.032,.032q-.032,.032-.064,.032c-.58,.129-1.418,.322-1.901,.773-.097,0-.226,0-.29-.032-.225,0-.418-.032-.612-.032-.999,.032-1.965,.032-2.964,.032C-5.183,123.694-6.859,78.779,21.205,40.662c5.67-7.701,10.922-12.373,17.979-18.333C48.657,14.274,68.44,3.963,80.072,2.481l-.902,.805c-13.275,9.473-21.749,14.982-31.318,29.256-15.111,22.619-20.267,58.061-3.158,78.65,2.9,3.544,7.121,6.959,12.18,8.635,11.76,3.898,21.716-.87,28.579-9.924,17.238-22.716,1.289-49.781-17.657-65.601-.805-.676-2.191-1.611-2.642-2.288l8.539-9.44c1.063-1.096,1.675-2.288,2.9-3.125,5.671,2.707,9.892,9.859,11.728,13.436,.193-6.477-3.479-14.274-5.896-20.234L103.625,0l20.911,22.941c.193,.708-6.573,13.597-5.671,19.912,2.545-4.446,6.412-10.955,11.729-13.468l11.374,12.63c-.483,.741-4.124,3.319-5.703,4.994-5.188,5.51-9.828,9.505-14.145,16.626-11.47,18.881-10.923,46.236,11.471,55.902,5.059,2.159,12.018,2.062,17.206,.097,15.015-5.639,21.427-23.038,22.425-39.406,.709-11.728-2.964-25.035-6.863-34.443-7.958-19.236-22.071-32.543-39.309-43.304,20.75,3.093,47.3,21.942,59.06,38.439,15.981,22.393,23.424,45.914,20.17,75.267-1.804,16.465-7.83,32.092-17.012,45.56-1.965-.58-3.898-1.225-5.864-1.837-2.932-.967-5.864-1.901-8.796-2.771l-.064-.032-.097-.032h-.032c-.032,0-.032-.032-.064-.064-.387-.386-.741-.708-1.257-.902-.58-.258-1.063-.387-1.675-.483-.097,0-.193-.032-.29-.032l-8.055-2.449h-.097c-1.579-.322-3.479-.322-4.736,.902-.516,.516-.838,1.192-.935,1.934-.032,.645,.097,1.321,.419,1.901,.129,.258,.29,.483,.451,.709-.967,.418-1.965,.837-2.932,1.224-2.126,.902-4.285,1.772-6.412,2.642-.097,.032-.193,.097-.29,.129-.097,.064-.258,.161-.354,.193l-.032-.032c-.838-.064-1.643,.161-2.449,.419-.29-.129-.612-.161-.935-.193h-.483c-.193-.097-.419-.193-.645-.258-.902-.322-1.869-.838-2.707-1.256-1.675-.838-4.286-2.224-6.154-2.224-.934,0-1.804,.387-2.481,1.063-.387,.419-.709,.902-.934,1.45-.226,.547-.322,1.127-.322,1.708,0,.547,.097,1.095,.322,1.611-.161,.032-.322,.097-.516,.161l-.483,.193c-.516,.226-2.513,1.096-3.029,.677-.806-.677-1.643-1.192-2.674-1.257-.161-.129-.322-.226-.483-.354-.837-.676-1.514-1.127-2.545-1.546-1.192-.516-2.578-.612-3.802-.193-.709,.258-1.321,.677-1.772,1.256-.515,.645-.773,1.45-.773,2.288,.064,1.385,.805,2.61,1.708,3.641l.064,.032c-.064,.032-.097,.032-.129,.032-.999,.226-2.417,.548-3.222,1.354-.161-.032-.387-.064-.516-.064-.322-.032-.677-.064-.999-.064-2.513,.032-5.026,.064-7.54,.064h-1.321c-.097,.032-.193,.032-.258,.032l-.129-.097-.097-.097h-.032c-.419-.322-.87-.645-1.289-.967-.934-.677-2.159-1.482-2.932-2.288l-.032-.032-.064-.064-.032-.032c-1.45-1.224-3.416-2.062-5.284-1.45-.645,.193-1.225,.58-1.644,1.063-.451,.516-.741,1.16-.87,1.804-.225,1.482,.419,2.803,1.418,3.834-.064,.032-.129,.097-.193,.129-1.354,1.224-1.192,2.932-.032,4.253l.064,.032,.097,.097,.064,.064c.29,.258,.58,.548,.87,.806,2.126,2.126,4.027,3.48,7.185,3.641h.129l3.737-.354c.129-.032,.29-.032,.451,.032,.097,.032,.226,.097,.29,.193,.677,.612,1.192,.902,2.03,1.224,.129,.064,.29,.129,.451,.193l4.092,3.029-12.276,10.278c-.29,.258-.58,.483-.87,.709-.387,.322-.709,.58-.935,1.031-.322,.677-.258,1.257-.032,1.836l-.935,1.418,4.64,5.381Zm-10.021-60.703c.097,.064,.193,.128,.29,.193s.161,.097,.258,.129c.451,.193,.967-.064,.999-.58,0-.129-.032-.29-.129-.419-.129-.226-.29-.451-.483-.645,.064-.161,.097-.322,.064-.451s-.097-.226-.161-.354c-.193-.29-.58-.548-.935-.676-.129-.032-.258-.064-.354-.097-.354-.29-.709-.645-1.031-.967-.548-.548-1.063-1.128-1.579-1.675-.419-.451-.838-.935-1.257-1.386-.354-.419-.741-.806-1.096-1.192-.064-.064-.096-.129-.161-.161-.032-.032-.064-.064-.097-.129v-.097l-.032-.064c-.032-.193-.097-.387-.193-.548-.064-.129-.161-.258-.29-.354v-.032l-.129-.097c.161-.097,.29-.193,.451-.29,.58-.386,1.16-.741,1.74-1.127,.612-.387,1.225-.773,1.869-1.16,.193-.161,.419-.29,.645-.419,.032-.032,.064-.032,.064-.064,.322,.161,.612,.226,.902-.032,.129-.129,.193-.258,.226-.419,.257-.096,.58-.193,.773-.193,.129,.129,.29,.225,.419,.322,.226,.161,.483,.258,.741,.322,.516,.097,1.031,0,1.482-.29,.226-.161,.419-.354,.58-.612,.129-.226,.258-.483,.322-.773,.032-.097,.032-.226,.064-.354l.837,.58,.161,.064,.064,.032c.129,0,.29,0,.419,.032,.322,.032,.451,.032,.773,.193h.032c.935,.354,1.869,.837,2.771,1.256,1.321,.645,2.674,1.354,3.995,2.03,1.031,.515,2.03,1.031,3.061,1.546,2.32,1.16,4.672,2.352,7.088,3.319,.838,.354,1.772,.708,2.674,.934,.58,.129,1.418,.29,1.966-.064,.225-.161,.451-.322,.676-.483,.064-.032,.129-.097,.226-.161l.516-.354-.354-.548c-.548-.838-1.321-1.708-2.062-2.417-.258-.258-.548-.548-.838-.806-.612-.548-1.836-1.611-2.707-1.611-.129,0-.226,.032-.322,.064l-.032-.032c-.257-.161-.547-.354-.805-.516,.097,0,.193,0,.322-.064,.097-.032,.193-.129,.258-.193,.386,.161,.837,.322,1.16,.032s.29-.709,.032-.999c-.161-.258-.419-.386-.677-.515v-.161c.032-.387-.29-.645-.676-.709-.161-.032-.322-.032-.483-.032-.064-.032-.161-.032-.258-.032h-.451l-5.961-2.932c-.064-.129-.129-.226-.226-.322,.032-.064,.032-.161,.032-.258,0-.226-.064-.451-.226-.612v-.032c-.128-.129-.257-.226-.418-.322-.129-.064-.226-.097-.354-.161-.645-.29-1.354-.612-2.03-.773-.516-.129-1.063-.161-1.611-.193-.193-.032-.387-.064-.612-.064-.064-.032-.193-.097-.322-.193,0-.032,.032-.064,.032-.097,.161-.064,.322-.129,.483-.225,.129-.064,.226-.161,.322-.258,.097-.064,.161-.161,.226-.258,.032,0,.032-.032,.064-.032,.032-.032,.064-.064,.129-.097,.645-.419,1.321-.838,1.965-1.257,.612-.387,1.225-.773,1.837-1.16,.064-.032,.097-.064,.161-.097,.29-.161,.58-.322,.773-.612,.097,.032,.193,.064,.258,.064,.032,.032,.097,.032,.129,.064l6.187,1.546c.322,.097,.805,.419,1.127,.612,.354,.258,.806,.612,1.257,.29,.097-.064,.161-.161,.226-.226,.161,.032,.354,.064,.547,.097,.161,.032,.354,.032,.516-.032,.226-.032,.419-.193,.483-.419,.097-.258,.032-.516-.129-.709-.097-.129-.258-.193-.387-.258-.193-.097-.387-.161-.58-.225,0-.322-.257-.58-.58-.677-.129-.032-.258-.064-.387-.064h-.645c-.226,.032-.612,.032-.837-.032l-.032-.032c-1.128-.322-2.256-.677-3.351-1.031-1.031-.354-2.062-.676-3.093-.999h-.097v-.032c-.129-.129-.258-.226-.451-.322-.226-.097-.354-.129-.58-.161-.032,0-.064,0-.129-.032l-2.835-.838h-.032c-.548-.129-1.225-.129-1.676,.322-.161,.161-.29,.419-.322,.677,0,.226,.032,.451,.161,.677,.032,.064,.097,.161,.161,.226-.354,.161-.709,.29-1.031,.451-.773,.322-1.515,.612-2.288,.935-.032,0-.064,.032-.097,.032-.032,.032-.097,.064-.129,.064-.29-.032-.58,.064-.87,.129-.097-.032-.193-.032-.322-.032l-.161-.032c-.064-.032-.161-.064-.226-.097-.322-.097-.677-.29-.966-.419-.58-.322-1.515-.805-2.159-.805-.322,0-.645,.161-.87,.386-.161,.161-.258,.322-.354,.516-.064,.193-.097,.387-.097,.58,0,.226,.032,.419,.129,.58-.064,.032-.129,.032-.193,.064s-.129,.064-.161,.064c-.193,.096-.902,.386-1.096,.257-.29-.257-.547-.418-.934-.451-.064-.032-.097-.097-.161-.129-.29-.258-.548-.387-.902-.548-.418-.193-.902-.226-1.353-.064-.226,.097-.451,.226-.612,.451-.193,.226-.29,.515-.258,.805,0,.483,.258,.902,.58,1.257l.032,.032h-.064c-.354,.097-.838,.193-1.128,.483-.064,0-.129-.032-.161-.032-.129,0-.257-.032-.354,0h-3.125c-.032,0-.064,.032-.097,.032l-.032-.032-.032-.032-.032-.032c-.161-.097-.29-.226-.451-.322-.322-.226-.773-.516-1.031-.806h-.032v-.032h-.032c-.483-.451-1.192-.741-1.836-.516-.226,.064-.451,.193-.58,.354-.161,.193-.29,.419-.322,.645-.064,.516,.161,.999,.515,1.354-.032,0-.064,.032-.064,.032-.483,.451-.418,1.063-.032,1.514h.032l.032,.032,.032,.032,.29,.29c.773,.741,1.418,1.224,2.545,1.289h.032l1.321-.129h.161c.032,.032,.064,.032,.097,.064,.258,.226,.418,.322,.708,.451,.064,0,.129,.032,.161,.064l1.45,1.063-4.318,3.608v.032c-.097,.064-.193,.161-.322,.226-.128,.129-.257,.193-.322,.387-.129,.226-.097,.419,0,.645l-.322,.483,1.611,1.901,.097,.064,.032,.032c.129,.064,.226,.097,.322,.129,.097,.129,.226,.258,.322,.387,.161,.193,.354,.386,.516,.58l.032,.032,.032,.032h.032c.29,.258,.58,.387,.934,.483,.129,.097,.226,.161,.354,.226,.064,.032,.097,.032,.129,.064l5.284,5.188v.064c.032,.161,.064,.29,.161,.419,.129,.258,.387,.548,.58,.741,.032,.064,.097,.129,.193,.193,.226,.129,.483,.161,.676,.064Zm19.912-13.008c.462,.305,.924,.585,1.386,.893,0-.032-.032-.032-.032-.064-.129-.097-.387-.387-.548-.483l-.806-.345Z"/>
</svg>