<?xml version="1.0" encoding="UTF-8"?>
<svg id="Layer_1" data-name="Layer 1" xmlns="http://www.w3.org/2000/svg" viewBox="0 0 232.776 232.943">
  <path d="M106.689,185.714c1.764,.499,5.945,4.411,7.939,5.178l1.841-9.09,1.572,9.051c2.033-.575,5.446-4.142,7.901-5.139-1.151,2.224-4.411,5.906-5.254,7.747l9.051,1.611c-1.189,1.189-5.599,.92-8.974,1.994,1.074,2.57,4.027,5.139,5.101,7.709-1.304-.422-2.685-1.688-3.912-2.531-1.304-.882-2.34-1.879-3.797-2.57l-1.649,8.974c-.882-1.342-1.649-7.517-1.803-9.013-2.723,1.074-5.484,4.334-8.016,5.216,1.112-2.186,4.832-6.29,5.216-7.901-1.879-.307-7.824-.767-8.936-1.764l8.898-1.611c-.805-2.378-4.295-5.715-5.178-7.862Zm2.8-173.583c22.091-2.761,53.003,7.172,70.108,21.094,13.615,11.007,21.209,19.828,29.838,35.438,5.983,10.777,10.47,27.038,11.391,40.999,4.909,76.551-70.453,131.511-142.556,104.472-37.777-14.19-63.32-50.817-66.426-90.665C8.047,75.029,40.915,29.121,87.321,15.966c7.709-2.186,13.73-2.8,22.168-3.835Zm-3.145-11.544C41.183,7.375-4.648,61.644,.376,126.996c3.375,44.182,34.172,83.225,75.363,98.758,15.226,5.753,32.715,8.169,50.817,6.827,63.358-4.756,111.376-62.975,105.776-126.026C226.771,43.887,170.239-6.01,106.344,.587Zm51.009,183.785c1.227,.69,7.402,1.496,9.09,1.649-.499,.345-.115,.422-2.186,.767-1.496,.268-5.906,.69-6.903,1.419,1.189,2.57,3.989,5.024,5.178,7.709-2.455-1.342-6.06-4.564-7.709-5.216-1.496,2.224-.652,6.597-1.956,9.243-.652-2.531-.69-7.479-1.879-9.243-2.378,1.074-5.484,4.372-7.747,5.178,1.074-2.263,4.564-6.098,5.216-7.671-.882-.652-5.024-1.074-6.865-1.419l-2.033-.69,8.898-1.572c-.844-2.263-3.95-5.484-5.178-7.901,2.109,.92,6.29,4.794,7.901,5.139l1.611-9.205c.767,1.342,1.419,7.172,1.803,9.243,2.033-.46,5.484-4.142,7.939-5.178-.805,1.994-4.602,6.021-5.178,7.747Zm-73.1,0c2.493,1.304,6.175,.805,8.936,1.726-1.189,1.074-6.942,1.457-9.013,1.764,.767,2.416,4.18,5.638,5.254,7.977-.997-.269-2.915-1.841-3.912-2.57-.997-.729-2.838-2.263-4.104-2.646-.269,2.071-.844,7.594-1.649,9.013l-1.688-9.013c-2.57,1.036-5.83,4.526-7.824,5.178,.537-2.033,4.295-5.446,5.101-7.901-2.34-.383-7.479-.614-9.166-1.764l9.128-1.611c-1.151-2.685-4.295-5.523-5.139-7.862,2.992,1.304,4.832,3.912,7.824,5.216l1.611-9.051c1.227,2.071,1.342,6.482,1.841,9.051,2.148-.767,6.136-4.832,7.939-5.139-.614,1.496-4.449,5.676-5.139,7.632Zm101.289-24.776c2.186,1.304,7.172,.537,9.013,2.033-2.34,.69-7.095,.729-8.974,1.803,.383,1.112,1.688,2.646,2.493,3.759,.92,1.266,1.994,2.608,2.608,3.835-1.803-.383-5.676-4.219-7.901-5.139l-1.342,8.131c-.307,1.112,.422-.92-.192,.46l-1.841-8.591c-2.186,.652-5.408,4.142-7.939,5.216,1.227-2.455,4.449-5.638,5.101-7.671-2.301-1.342-5.945-.844-8.744-1.764l1.726-.69c.805-.115,1.611-.192,2.455-.345,1.496-.268,3.145-.499,4.679-.844-.882-2.57-4.295-5.293-5.178-7.862,2.109,.844,5.599,4.295,7.786,5.139l1.918-8.591c.729,1.764-.192-.844,.23,.537,.652,2.263,.537,6.712,1.688,8.092,1.611-.959,6.213-4.756,7.517-5.063-.46,1.266-1.572,2.34-2.416,3.567-.959,1.342-1.994,2.493-2.685,3.989Zm-129.516,0c2.148,1.419,6.903,.537,8.975,2.033-2.34,.69-7.095,.729-8.975,1.803,.614,1.726,4.027,5.599,5.178,7.632-2.416-.69-5.638-4.449-7.901-5.101-.345,1.419-.575,2.953-.805,4.411l-1.036,4.487-1.572-8.936c-1.112,.345-2.915,1.764-3.874,2.493-1.112,.844-2.953,2.301-4.065,2.685,1.419-2.531,4.295-5.561,5.178-7.671-1.036-.652-7.364-1.496-9.051-1.649,.92-.92,2.378-.805,4.372-1.151,1.611-.268,3.145-.499,4.679-.844-.69-2.378-4.104-5.254-5.139-7.901,2.455,1.074,5.408,4.487,7.747,5.178l1.649-8.898c.499,.422,.499,.537,.69,1.649,.153,.844,.23,1.688,.384,2.531,.268,1.649,.499,3.183,.805,4.756,1.419-.307,5.983-4.18,7.977-5.216-.652,1.611-4.334,5.868-5.216,7.709Zm-27.384-43.07c1.572,.767,2.57,1.688,3.95,2.57,1.419,.959,2.416,1.956,3.759,2.608,1.074-2.455,.575-6.597,1.841-8.974,1.266,2.301,.805,6.328,1.879,9.013,2.34-1.036,4.986-4.027,7.709-5.178-.575,1.342-1.803,2.8-2.608,3.874-.844,1.112-1.956,2.646-2.646,3.759,1.956,.959,7.517,.92,9.128,1.879l-9.128,1.726c1.036,2.493,4.257,5.254,5.178,7.824-2.378-1.074-5.83-4.641-7.862-5.178l-.997,6.712c-.038,.23-.153,.92-.23,1.189l-2.071-7.747c-1.649,.268-5.83,4.104-7.824,5.101,.652-1.572,1.534-2.685,2.531-4.027,.729-.959,2.224-2.915,2.608-3.797-2.723-.844-6.712-.614-8.936-1.803,2.148-1.151,6.827-.767,8.936-1.879l-5.216-7.671Zm156.248-.038c2.455,.997,5.024,3.912,7.67,5.139,.729-1.227,1.074-6.443,1.803-9.09,.959,1.572,.921,6.405,1.918,8.859,0,.077,.038,.192,.115,.269,1.457-.997,6.443-4.756,7.632-5.139-.537,1.534-4.487,6.021-5.101,7.786l8.898,1.611c-1.381,.997-7.018,1.611-9.051,1.764,.844,2.263,4.947,6.482,5.178,8.016-1.112-.422-5.676-4.142-7.555-5.178l-.652,2.186c-.307,1.726-.729,5.868-1.381,6.903-.383-1.419-.614-2.915-.844-4.411-.652-3.989-.192-2.761-.844-4.449-.038-.038-.077-.153-.115-.268-2.455,1.227-5.446,4.372-7.67,5.178,.729-2.416,4.257-5.331,5.216-7.977-1.956-.153-7.747-.882-9.013-1.611l9.013-1.688c-1.151-2.531-4.449-5.599-5.216-7.901Zm3.107-32.254c1.074-1.956,1.304-6.558,1.803-9.128,1.457,2.263,.652,6.712,2.033,9.128,2.186-1.189,6.827-4.871,7.671-5.216-.614,2.263-4.411,5.561-5.216,7.977l9.013,1.879-8.974,1.534c.69,2.109,4.947,6.482,5.063,7.901-1.841-.729-5.216-3.874-7.555-5.139-1.112,1.918-1.304,6.597-1.803,9.128-1.572-2.224-.767-6.788-2.033-9.166l-7.594,5.216c.23-1.572,4.257-5.753,5.139-7.939l-9.013-1.879,9.051-1.457c-.882-2.34-4.947-6.328-5.216-8.016,1.419,.614,5.484,4.142,7.632,5.178Zm-145.241-9.013c.652,1.227,1.381,7.44,1.611,9.128,2.57-.959,5.446-4.065,8.054-5.331-.882,2.339-4.679,5.83-5.139,7.977l8.936,1.649c-1.764,.959-6.75,1.342-9.051,1.688,.882,2.608,3.95,5.408,5.254,8.054-1.572-.767-2.57-1.764-4.027-2.761-1.496-.959-2.455-1.688-3.759-2.57-1.036,1.956-.882,6.903-1.879,9.205-1.036-1.879-.614-7.21-1.918-8.783-.268-.537,.153-.345-.614,0l-3.107,2.186c-1.227,.844-2.8,2.186-4.027,2.685,1.266-2.761,4.295-5.293,5.293-8.054-2.109-.23-7.594-.92-9.166-1.726l9.166-1.688c-1.266-2.608-3.989-4.986-5.178-7.786,2.148,1.074,6.098,4.717,7.862,5.063l1.688-8.936Zm32.715,25.006c0,13.078,5.638,26.655,18.256,26.655,8.668,0,16.108-9.281,16.108-18.294v-2.071c0-11.084-10.815-22.091-16.108-25.773,.537-1.266,5.714-7.095,6.98-7.594,4.027,2.876,3.528,3.797,6.29,7.057,1.036-2.378-2.8-9.205-3.068-11.045,3.682-4.564,8.399-9.166,12.503-13.385,1.688,1.342,12.081,13.078,12.311,13.73-1.419,2.876-3.337,7.057-3.26,10.739,2.033-1.572,3.222-5.753,6.635-7.172,.767,.46,6.29,6.443,6.827,7.364-6.558,6.252-14.267,12.771-15.84,23.357-3.375,22.858,23.472,32.983,31.871,10.202,3.03-8.246,2.685-15.916,.46-24.546-3.797-14.689-12.234-23.472-23.932-31.181-.077-.038-.614-.422-.652-.422-.422-.384-.192-.192-.537-.614,5.561,.575,14.612,5.293,18.563,7.747,52.504,32.906,25.389,112.603-30.03,112.603-54.537,0-82.688-59.178-49.13-100.292,6.712-8.246,22.091-19.061,32.676-20.02-1.381,1.457-3.452,2.263-5.101,3.567-12.388,9.742-21.823,22.896-21.823,39.388Zm92.966-55.918c.077,.077,.115,.192,.153,.268,.537,1.304,.69,2.992,.882,4.372,.269,1.572,.422,2.838,.844,4.411l7.709-5.331c-.192,1.457-4.18,5.753-5.101,8.054l9.128,1.534-4.564,.997c-1.534,.269-2.991,.537-4.564,.729,.422,1.304,1.611,2.646,2.493,3.874,.729,1.036,2.071,2.723,2.608,3.95-1.572-.652-2.685-1.688-3.95-2.608-.844-.614-2.876-2.186-3.912-2.493-.192,1.764-.844,7.939-1.803,9.09l-1.649-8.974c-2.263,.767-5.446,4.104-7.709,5.139,.422-1.611,4.142-5.906,5.178-7.901l-9.205-1.687c2.263-.997,7.287-.844,9.128-1.918-1.304-2.455-4.104-5.216-5.178-7.671,2.761,1.304,5.216,3.95,7.862,5.254l1.649-9.09Zm-104.204-.23l1.572,9.32c2.186-.805,6.136-4.832,7.901-5.139-1.381,2.493-4.104,5.216-5.178,7.786l9.205,1.572c-.959,.614-1.572,.499-4.641,.997-1.457,.23-3.068,.537-4.526,.69,.575,2.109,4.18,5.83,5.178,8.016-2.148-.844-5.369-3.912-7.594-5.216l-.269,.499c-.92,2.301,.384-1.419-.192,.537-.499,1.726-.882,6.827-1.688,8.169l-1.726-9.166c-2.416,1.074-5.484,4.334-7.709,5.178,.46-1.841,4.334-5.523,5.178-7.862l-7.095-1.227c-.268-.038-.92-.192-1.151-.268-.69-.23-.499-.153-.882-.422l9.166-1.649c-.652-1.726-4.449-5.791-5.254-7.747,1.994,.767,5.715,4.295,7.901,5.178l1.803-9.243ZM17.673,123.621c1.342,20.097,9.051,38.813,20.634,53.655,3.912,4.986,7.402,8.361,11.736,12.695l6.942,5.638c19.061,13.692,41.459,21.784,66.158,19.598,26.31-2.301,50.472-13.692,66.465-32.369,.614-.729,.844-.844,1.534-1.611l4.18-5.254c1.649-2.186,3.528-4.717,4.986-7.249,2.991-5.216,6.021-10.202,8.284-16.53,4.641-12.963,7.632-26.808,6.443-42.303-1.534-19.752-9.972-42.725-23.395-57.299-6.136-6.673-8.284-9.051-15.801-14.919-29.8-23.088-70.645-26.118-105.009-8.859C36.389,46.073,15.027,84.387,17.673,123.621Z" style="fill-rule: evenodd;"/>
</svg>