<?xml version="1.0" encoding="UTF-8"?>
<svg id="Layer_1" data-name="Layer 1" xmlns="http://www.w3.org/2000/svg" viewBox="0 0 227.144 232.135">
  <path d="M113.33,0c6.86,7.783,13.724,15.563,20.584,23.347-2.602,4.41-5.003,8.961-6.798,13.765-1.627,4.336-2.737,8.887-3.066,13.513,6.512-5.649,13.036-11.282,19.552-16.925,4.427,4.954,8.858,9.906,13.288,14.858-.202,.348-.247,.863-.679,1.008-3.771,1.823-7.334,4.098-10.507,6.838-3.441,2.96-6.394,6.478-8.743,10.361-2.667,4.391-4.56,9.221-5.86,14.182-1.372,5.276-2.138,10.701-2.456,16.138-.348,6.325,.152,12.758,2.079,18.819,1.25,3.891,2.991,7.663,5.443,10.95,2.474,3.328,5.738,6.116,9.559,7.777,3.914,1.727,8.333,2.189,12.544,1.511,3.981-.611,7.747-2.191,11.221-4.193,5.954-3.366,11.123-8.067,15.144-13.593,4.326-5.905,7.399-12.639,9.687-19.568,2.799-8.338,3.929-17.25,3.109-26.017-.828-9.257-3.734-18.238-7.871-26.529-2.201-4.439-4.781-8.681-7.539-12.792-3.051-4.595-6.321-9.04-9.36-13.64,.195-.005,.417-.071,.587,.074,8.148,5.659,15.915,11.912,22.863,19.005,5.91,6.03,11.209,12.68,15.579,19.911,3.78,6.23,6.855,12.884,9.178,19.791,8.315,24.551,8.283,51.739,.393,76.395-3.15,9.853-7.559,19.314-13.178,28.004-5.715,8.843-12.697,16.883-20.761,23.664-7.527,6.348-15.869,11.746-24.827,15.844-10.092,4.637-20.939,7.584-31.966,8.854-7.108,.826-14.289,.978-21.43,.555-12.054-.687-24.031-3.062-35.352-7.279-10.926-4.052-21.228-9.8-30.372-17.028-10.98-8.654-20.262-19.43-27.283-31.514-5.47-9.389-9.587-19.553-12.326-30.066C.526,133.649-.666,120.733,.356,107.98c.932-11.746,3.743-23.34,8.278-34.215,4.155-9.987,9.752-19.365,16.516-27.802,8.018-10.022,17.671-18.707,28.358-25.801,.545-.32,1.191-.397,1.779-.615-6.295,7.699-11.921,15.988-16.274,24.944-2.373,4.876-4.365,9.938-5.917,15.133-1.624,5.431-2.773,11.016-3.234,16.671-.515,6.242-.161,12.573,1.222,18.688,1.107,4.92,2.875,9.687,5.211,14.154,2.38,4.563,5.342,8.812,8.696,12.711,1.547,1.789,3.143,3.547,4.926,5.107,3.464,3.07,7.494,5.486,11.814,7.143,2.224,.847,4.513,1.562,6.875,1.894,4.866,.729,9.976-.081,14.31-2.437,4.327-2.315,7.796-6.08,10.007-10.439,2.398-4.754,4.106-9.863,4.964-15.121,.958-5.776,.872-11.699-.033-17.475-.837-5.39-2.356-10.657-4.289-15.752-1.776-4.652-4.214-9.07-7.383-12.92-4.537-5.568-10.576-9.789-17.146-12.622,4.109-4.56,8.147-9.185,12.412-13.601,.373-.438,1-.446,1.528-.443,.704,.034,1.462,.146,2.029,.603,4.907,4.011,9.671,8.193,14.423,12.386,1.082,.916,1.825,2.143,2.72,3.227,.374-3.11-.141-6.253-.969-9.251-1.29-4.579-3.305-8.914-5.512-13.113-.984-1.859-2.014-3.69-3.085-5.499,6.913-7.846,13.831-15.689,20.747-23.534Z"/>
</svg>