<?xml version="1.0" encoding="UTF-8"?>
<svg id="Layer_1" data-name="Layer 1" xmlns="http://www.w3.org/2000/svg" viewBox="0 0 233.065 233.058">
  <path d="M220.708,64.311c-10.972-21.922-29.037-40.187-50.848-51.38C150.043,2.623,127.212-1.633,105.002,.562,73.881,3.444,44.401,19.691,25.117,44.229,9.334,64.045,.335,89.159,.025,114.494c-.488,23.23,6.251,46.548,19.063,65.943,13.167,20.104,32.695,35.975,55.104,44.686,22.565,8.844,47.923,10.329,71.396,4.278,21.013-5.364,40.408-16.802,55.348-32.539,16.647-17.422,27.685-40.098,30.988-63.971,3.303-23.296-.599-47.568-11.216-68.581ZM123.511,9.096c24.515,1.552,48.366,11.814,66.276,28.616,7.115,6.583,13.277,14.164,18.42,22.387-2.616,1.596-5.209,3.214-7.824,4.81-3.214-5.12-6.849-9.997-10.906-14.474-2.128,1.906-4.256,3.835-6.362,5.763-11.438-12.546-26.377-21.811-42.736-26.289,.709-2.793,1.485-5.564,2.217-8.334-6.428-1.707-13.011-2.815-19.639-3.258,.155-3.081,.355-6.14,.554-9.221Zm-39.322,4.766c9.465-3.015,19.373-4.566,29.303-4.921,.111,3.059,.199,6.14,.288,9.199-6.051,.199-12.103,.909-18.021,2.172,.598,2.815,1.219,5.608,1.818,8.423-16.602,3.591-32.074,11.992-44.199,23.917-1.973-2.017-3.99-3.968-5.896-6.051-4.965,4.478-9.044,9.842-12.834,15.339-2.549-1.707-5.12-3.414-7.669-5.143,13.499-20.237,33.98-35.709,57.21-42.935ZM21.792,65.353c2.704,1.463,5.408,2.904,8.113,4.389-2.859,5.342-5.253,10.928-7.093,16.691,2.726,.864,5.453,1.751,8.179,2.638-5.187,16.137-5.674,33.736-1.352,50.117-2.749,.887-5.564,1.507-8.357,2.283,1.685,6.45,4.056,12.679,6.982,18.664-2.771,1.374-5.519,2.749-8.29,4.101-15.361-30.722-14.674-68.759,1.818-98.882ZM109.591,223.972c-22.454-1.441-44.376-10.085-61.643-24.493-9.088-7.492-16.868-16.536-23.119-26.51,2.616-1.618,5.253-3.214,7.869-4.832,3.236,5.098,6.849,9.975,10.928,14.452,2.128-1.906,4.234-3.835,6.362-5.741,11.437,12.546,26.399,21.811,42.78,26.311-.731,2.771-1.507,5.519-2.261,8.29,6.45,1.751,13.056,2.815,19.683,3.325-.199,3.059-.399,6.14-.598,9.199Zm-4.721-36.507c1.951-11.992,3.946-23.983,5.896-35.975-8.911-1.485-17.09-6.495-22.565-13.676-9.709,7.293-19.417,14.585-29.148,21.878-4.056-5.453-7.359-11.46-9.797-17.799,11.371-4.322,22.809-8.512,34.135-12.923-3.236-8.423-2.926-18.043,.554-26.333-11.194-4.766-22.365-9.531-33.559-14.297,2.704-6.229,6.273-12.08,10.551-17.378,9.398,7.692,18.797,15.427,28.217,23.119,5.741-6.982,14.164-11.615,23.141-12.745-1.463-12.058-2.926-24.116-4.389-36.175,6.761-.776,13.61-.621,20.326,.399-1.928,11.992-3.968,23.983-5.918,35.997,8.911,1.485,17.112,6.495,22.587,13.676,9.709-7.293,19.417-14.585,29.126-21.878,4.079,5.453,7.359,11.46,9.819,17.777-11.371,4.3-22.742,8.6-34.113,12.878,3.125,8.467,2.97,18.065-.576,26.377,11.172,4.81,22.365,9.553,33.559,14.341-2.726,6.229-6.273,12.08-10.529,17.356-9.398-7.692-18.797-15.427-28.195-23.119-5.785,6.938-14.164,11.593-23.141,12.723,1.463,12.08,2.926,24.139,4.367,36.197-6.805,.776-13.632,.621-20.348-.421Zm44.775,31.476c-9.709,3.17-19.861,4.832-30.057,5.209-.067-3.103-.222-6.184-.199-9.287,6.051-.155,12.102-.776,17.977-2.239-.665-2.749-1.241-5.519-1.84-8.29,16.624-3.569,32.052-12.058,44.177-23.939,1.995,2.039,4.012,4.079,6.007,6.118,4.766-4.677,8.977-9.864,12.723-15.361,2.571,1.707,5.12,3.414,7.692,5.142-13.433,19.949-33.559,35.332-56.479,42.647Zm61.599-51.27c-2.704-1.463-5.408-2.926-8.113-4.367,2.859-5.342,5.253-10.906,7.137-16.669-2.726-.887-5.475-1.751-8.201-2.638,5.187-16.181,5.63-33.759,1.396-50.206,2.771-.731,5.541-1.463,8.312-2.194-1.685-6.45-4.034-12.701-6.982-18.664,2.771-1.352,5.497-2.726,8.268-4.079,15.317,30.678,14.674,68.692-1.818,98.815Z"/>
</svg>