<?xml version="1.0" encoding="UTF-8"?>
<svg id="Layer_1" data-name="Layer 1" xmlns="http://www.w3.org/2000/svg" viewBox="0 0 229.549 229.97">
  <path d="M227.051,90.33h-46.569v-8.204h16.43v-8.204h-32.859v-8.204h24.633v-8.226h-8.205v-8.204h-16.43v-8.204h8.204v-8.204h-16.43v-8.204h8.204V11.211C149.082,4.091,132.409,0,114.764,0,52.65,0,2.167,49.288,0,110.872H229.526c-.221-7.031-1.039-13.886-2.476-20.541Zm-153.328,0c-18.154,0-32.859-14.705-32.859-32.859s14.704-32.859,32.859-32.859,32.859,14.705,32.859,32.859c0,18.155-14.726,32.859-32.859,32.859Zm153.328,49.288c1.459-6.634,2.255-13.511,2.498-20.52H.023c2.189,61.583,52.649,110.872,114.763,110.872,8.469,0,16.695-.973,24.633-2.72v-5.506h-8.204v-8.204h24.633v-8.204h8.204v-8.204h24.633v-8.204h8.204v-8.204h-16.43v-8.204h-24.633v-8.204h16.43v-8.204h32.859v-8.204h-16.43v-8.203h38.365v-.088h-.001Z"/>
</svg>